<?xml version="1.0" standalone="no"?>
<!DOCTYPE svg PUBLIC "-//W3C//DTD SVG 1.1//EN" "http://www.w3.org/Graphics/SVG/1.1/DTD/svg11.dtd" >
<svg xmlns="http://www.w3.org/2000/svg">
<metadata>Generated by IcoMoon</metadata>
<defs>
<font id="icomoon" horiz-adv-x="1024">
<font-face units-per-em="1024" ascent="960" descent="-64" />
<missing-glyph horiz-adv-x="1024" />
<glyph unicode="&#x20;" horiz-adv-x="512" d="" />
<glyph unicode="&#xe900;" glyph-name="enlarge" d="M1024 960h-416l160-160-192-192 96-96 192 192 160-160zM1024-64v416l-160-160-192 192-96-96 192-192-160-160zM0-64h416l-160 160 192 192-96 96-192-192-160 160zM0 960v-416l160 160 192-192 96 96-192 192 160 160z" />
<glyph unicode="&#xe901;" glyph-name="shrink" d="M576 512h416l-160 160 192 192-96 96-192-192-160 160zM576 384v-416l160 160 192-192 96 96-192 192 160 160zM448 384h-416l160-160-192-192 96-96 192 192 160-160zM448 512v416l-160-160-192 192-96-96 192-192-160-160z" />
<glyph unicode="&#xe902;" glyph-name="enlarge2" d="M1024 960v-416l-160 160-192-192-96 96 192 192-160 160zM448 288l-192-192 160-160h-416v416l160-160 192 192z" />
<glyph unicode="&#xe903;" glyph-name="shrink2" d="M448 384v-416l-160 160-192-192-96 96 192 192-160 160zM1024 864l-192-192 160-160h-416v416l160-160 192 192z" />
<glyph unicode="&#xe904;" glyph-name="add-button-inside-black-circle" d="M512 960c-281.6 0-512-230.4-512-512s230.4-512 512-512 512 230.4 512 512-230.4 512-512 512zM768 396.8h-204.8v-204.8h-102.4v204.8h-204.8v102.4h204.8v204.8h102.4v-204.8h204.8v-102.4z" />
<glyph unicode="&#xe905;" glyph-name="add-plus-button" d="M1024 374.857h-438.857v-438.857h-146.286v438.857h-438.857v146.286h438.857v438.857h146.286v-438.857h438.857v-146.286z" />
<glyph unicode="&#xe906;" glyph-name="adjust" d="M512 137.143v621.714q-84.571 0-156-41.714t-113.143-113.143-41.714-156 41.714-156 113.143-113.143 156-41.714zM950.857 448q0-119.429-58.857-220.286t-159.714-159.714-220.286-58.857-220.286 58.857-159.714 159.714-58.857 220.286 58.857 220.286 159.714 159.714 220.286 58.857 220.286-58.857 159.714-159.714 58.857-220.286z" />
<glyph unicode="&#xe907;" glyph-name="adjust-button-with-plus-and-minus" d="M910.222 960h-796.444c-62.578 0-113.778-51.2-113.778-113.778v-796.444c0-62.578 51.2-113.778 113.778-113.778h796.444c62.578 0 113.778 51.2 113.778 113.778v796.444c0 62.578-51.2 113.778-113.778 113.778zM142.222 704h113.778v113.778h85.333v-113.778h113.778v-85.333h-113.778v-113.778h-85.333v113.778h-113.778v85.333zM910.222 49.778h-796.444l796.444 796.444v-796.444zM796.444 163.556v85.333h-284.444v-85.333h284.444z" />
<glyph unicode="&#xe908;" glyph-name="angle-double-down" d="M797.143 466.286q0-7.429-5.714-13.143l-266.286-266.286q-5.714-5.714-13.143-5.714t-13.143 5.714l-266.286 266.286q-5.714 5.714-5.714 13.143t5.714 13.143l28.571 28.571q5.714 5.714 13.143 5.714t13.143-5.714l224.571-224.571 224.571 224.571q5.714 5.714 13.143 5.714t13.143-5.714l28.571-28.571q5.714-5.714 5.714-13.143zM797.143 685.714q0-7.429-5.714-13.143l-266.286-266.286q-5.714-5.714-13.143-5.714t-13.143 5.714l-266.286 266.286q-5.714 5.714-5.714 13.143t5.714 13.143l28.571 28.571q5.714 5.714 13.143 5.714t13.143-5.714l224.571-224.571 224.571 224.571q5.714 5.714 13.143 5.714t13.143-5.714l28.571-28.571q5.714-5.714 5.714-13.143z" />
<glyph unicode="&#xe909;" glyph-name="angle-double-left" d="M577.714 173.714q0-7.429-5.714-13.143l-28.571-28.571q-5.714-5.714-13.143-5.714t-13.143 5.714l-266.286 266.286q-5.714 5.714-5.714 13.143t5.714 13.143l266.286 266.286q5.714 5.714 13.143 5.714t13.143-5.714l28.571-28.571q5.714-5.714 5.714-13.143t-5.714-13.143l-224.571-224.571 224.571-224.571q5.714-5.714 5.714-13.143zM797.143 173.714q0-7.429-5.714-13.143l-28.571-28.571q-5.714-5.714-13.143-5.714t-13.143 5.714l-266.286 266.286q-5.714 5.714-5.714 13.143t5.714 13.143l266.286 266.286q5.714 5.714 13.143 5.714t13.143-5.714l28.571-28.571q5.714-5.714 5.714-13.143t-5.714-13.143l-224.571-224.571 224.571-224.571q5.714-5.714 5.714-13.143z" />
<glyph unicode="&#xe90a;" glyph-name="angle-double-right" d="M559.429 411.429q0-7.429-5.714-13.143l-266.286-266.286q-5.714-5.714-13.143-5.714t-13.143 5.714l-28.571 28.571q-5.714 5.714-5.714 13.143t5.714 13.143l224.571 224.571-224.571 224.571q-5.714 5.714-5.714 13.143t5.714 13.143l28.571 28.571q5.714 5.714 13.143 5.714t13.143-5.714l266.286-266.286q5.714-5.714 5.714-13.143zM778.857 411.429q0-7.429-5.714-13.143l-266.286-266.286q-5.714-5.714-13.143-5.714t-13.143 5.714l-28.571 28.571q-5.714 5.714-5.714 13.143t5.714 13.143l224.571 224.571-224.571 224.571q-5.714 5.714-5.714 13.143t5.714 13.143l28.571 28.571q5.714 5.714 13.143 5.714t13.143-5.714l266.286-266.286q5.714-5.714 5.714-13.143z" />
<glyph unicode="&#xe90b;" glyph-name="angle-double-up" d="M797.143 210.286q0-7.429-5.714-13.143l-28.571-28.571q-5.714-5.714-13.143-5.714t-13.143 5.714l-224.571 224.571-224.571-224.571q-5.714-5.714-13.143-5.714t-13.143 5.714l-28.571 28.571q-5.714 5.714-5.714 13.143t5.714 13.143l266.286 266.286q5.714 5.714 13.143 5.714t13.143-5.714l266.286-266.286q5.714-5.714 5.714-13.143zM797.143 429.714q0-7.429-5.714-13.143l-28.571-28.571q-5.714-5.714-13.143-5.714t-13.143 5.714l-224.571 224.571-224.571-224.571q-5.714-5.714-13.143-5.714t-13.143 5.714l-28.571 28.571q-5.714 5.714-5.714 13.143t5.714 13.143l266.286 266.286q5.714 5.714 13.143 5.714t13.143-5.714l266.286-266.286q5.714-5.714 5.714-13.143z" />
<glyph unicode="&#xe90c;" glyph-name="angle-down" d="M797.143 539.429q0-7.429-5.714-13.143l-266.286-266.286q-5.714-5.714-13.143-5.714t-13.143 5.714l-266.286 266.286q-5.714 5.714-5.714 13.143t5.714 13.143l28.571 28.571q5.714 5.714 13.143 5.714t13.143-5.714l224.571-224.571 224.571 224.571q5.714 5.714 13.143 5.714t13.143-5.714l28.571-28.571q5.714-5.714 5.714-13.143z" />
<glyph unicode="&#xe90d;" glyph-name="angle-left" d="M687.429 649.143q0-7.429-5.714-13.143l-224.571-224.571 224.571-224.571q5.714-5.714 5.714-13.143t-5.714-13.143l-28.571-28.571q-5.714-5.714-13.143-5.714t-13.143 5.714l-266.286 266.286q-5.714 5.714-5.714 13.143t5.714 13.143l266.286 266.286q5.714 5.714 13.143 5.714t13.143-5.714l28.571-28.571q5.714-5.714 5.714-13.143z" />
<glyph unicode="&#xe90e;" glyph-name="angle-right" d="M669.143 411.429q0-7.429-5.714-13.143l-266.286-266.286q-5.714-5.714-13.143-5.714t-13.143 5.714l-28.571 28.571q-5.714 5.714-5.714 13.143t5.714 13.143l224.571 224.571-224.571 224.571q-5.714 5.714-5.714 13.143t5.714 13.143l28.571 28.571q5.714 5.714 13.143 5.714t13.143-5.714l266.286-266.286q5.714-5.714 5.714-13.143z" />
<glyph unicode="&#xe90f;" glyph-name="angle-up" d="M797.143 283.429q0-7.429-5.714-13.143l-28.571-28.571q-5.714-5.714-13.143-5.714t-13.143 5.714l-224.571 224.571-224.571-224.571q-5.714-5.714-13.143-5.714t-13.143 5.714l-28.571 28.571q-5.714 5.714-5.714 13.143t5.714 13.143l266.286 266.286q5.714 5.714 13.143 5.714t13.143-5.714l266.286-266.286q5.714-5.714 5.714-13.143z" />
<glyph unicode="&#xe910;" glyph-name="arrow-circle-down" d="M806.857 447.429q0 15.429-10.286 25.714l-52 52q-10.286 10.286-25.714 10.286t-25.714-10.286l-108-108v286.857q0 14.857-10.857 25.714t-25.714 10.857h-73.143q-14.857 0-25.714-10.857t-10.857-25.714v-286.857l-108 108q-10.857 10.857-25.714 10.857t-25.714-10.857l-52-52q-10.286-10.286-10.286-25.714t10.286-25.714l258.857-258.857q10.286-10.286 25.714-10.286t25.714 10.286l258.857 258.857q10.286 10.286 10.286 25.714zM950.857 448q0-119.429-58.857-220.286t-159.714-159.714-220.286-58.857-220.286 58.857-159.714 159.714-58.857 220.286 58.857 220.286 159.714 159.714 220.286 58.857 220.286-58.857 159.714-159.714 58.857-220.286z" />
<glyph unicode="&#xe911;" glyph-name="arrow-circle-left" d="M804.571 411.429v73.143q0 14.857-10.857 25.714t-25.714 10.857h-286.857l108 108q10.857 10.857 10.857 25.714t-10.857 25.714l-52 52q-10.286 10.286-25.714 10.286t-25.714-10.286l-258.857-258.857q-10.286-10.286-10.286-25.714t10.286-25.714l258.857-258.857q10.286-10.286 25.714-10.286t25.714 10.286l52 52q10.286 10.286 10.286 25.714t-10.286 25.714l-108 108h286.857q14.857 0 25.714 10.857t10.857 25.714zM950.857 448q0-119.429-58.857-220.286t-159.714-159.714-220.286-58.857-220.286 58.857-159.714 159.714-58.857 220.286 58.857 220.286 159.714 159.714 220.286 58.857 220.286-58.857 159.714-159.714 58.857-220.286z" />
<glyph unicode="&#xe912;" glyph-name="arrow-circle-o-down" d="M713.143 429.714q0-6.857-5.714-13.714l-182.286-182.286q-6.286-5.143-13.143-5.143t-13.143 5.143l-182.857 182.857q-8.571 9.143-4 20 4.571 11.429 17.143 11.429h109.714v201.143q0 8 5.143 13.143t13.143 5.143h109.714q8 0 13.143-5.143t5.143-13.143v-201.143h109.714q8 0 13.143-5.143t5.143-13.143zM512 758.857q-84.571 0-156-41.714t-113.143-113.143-41.714-156 41.714-156 113.143-113.143 156-41.714 156 41.714 113.143 113.143 41.714 156-41.714 156-113.143 113.143-156 41.714zM950.857 448q0-119.429-58.857-220.286t-159.714-159.714-220.286-58.857-220.286 58.857-159.714 159.714-58.857 220.286 58.857 220.286 159.714 159.714 220.286 58.857 220.286-58.857 159.714-159.714 58.857-220.286z" />
<glyph unicode="&#xe913;" glyph-name="arrow-circle-o-left" d="M731.429 502.857v-109.714q0-7.429-5.429-12.857t-12.857-5.429h-201.143v-109.714q0-8-5.143-13.143t-13.143-5.143q-6.857 0-13.714 5.714l-182.286 182.286q-5.143 5.143-5.143 13.143t5.143 13.143l182.857 182.857q5.143 5.143 13.143 5.143 7.429 0 12.857-5.429t5.429-12.857v-109.714h201.143q7.429 0 12.857-5.429t5.429-12.857zM822.857 448q0 84.571-41.714 156t-113.143 113.143-156 41.714-156-41.714-113.143-113.143-41.714-156 41.714-156 113.143-113.143 156-41.714 156 41.714 113.143 113.143 41.714 156zM950.857 448q0-119.429-58.857-220.286t-159.714-159.714-220.286-58.857-220.286 58.857-159.714 159.714-58.857 220.286 58.857 220.286 159.714 159.714 220.286 58.857 220.286-58.857 159.714-159.714 58.857-220.286z" />
<glyph unicode="&#xe914;" glyph-name="arrow-circle-o-right" d="M731.429 448q0-8-5.143-13.143l-182.857-182.857q-5.143-5.143-13.143-5.143-7.429 0-12.857 5.429t-5.429 12.857v109.714h-201.143q-7.429 0-12.857 5.429t-5.429 12.857v109.714q0 7.429 5.429 12.857t12.857 5.429h201.143v109.714q0 8 5.143 13.143t13.143 5.143q6.857 0 13.714-5.714l182.286-182.286q5.143-5.143 5.143-13.143zM822.857 448q0 84.571-41.714 156t-113.143 113.143-156 41.714-156-41.714-113.143-113.143-41.714-156 41.714-156 113.143-113.143 156-41.714 156 41.714 113.143 113.143 41.714 156zM950.857 448q0-119.429-58.857-220.286t-159.714-159.714-220.286-58.857-220.286 58.857-159.714 159.714-58.857 220.286 58.857 220.286 159.714 159.714 220.286 58.857 220.286-58.857 159.714-159.714 58.857-220.286z" />
<glyph unicode="&#xe915;" glyph-name="arrow-circle-o-up" d="M712 459.429q-4.571-11.429-17.143-11.429h-109.714v-201.143q0-8-5.143-13.143t-13.143-5.143h-109.714q-8 0-13.143 5.143t-5.143 13.143v201.143h-109.714q-8 0-13.143 5.143t-5.143 13.143q0 6.857 5.714 13.714l182.286 182.286q6.286 5.143 13.143 5.143t13.143-5.143l182.857-182.857q8.571-9.143 4-20zM512 758.857q-84.571 0-156-41.714t-113.143-113.143-41.714-156 41.714-156 113.143-113.143 156-41.714 156 41.714 113.143 113.143 41.714 156-41.714 156-113.143 113.143-156 41.714zM950.857 448q0-119.429-58.857-220.286t-159.714-159.714-220.286-58.857-220.286 58.857-159.714 159.714-58.857 220.286 58.857 220.286 159.714 159.714 220.286 58.857 220.286-58.857 159.714-159.714 58.857-220.286z" />
<glyph unicode="&#xe916;" glyph-name="arrow-circle-right" d="M807.429 448q0 15.429-10.286 25.714l-258.857 258.857q-10.286 10.286-25.714 10.286t-25.714-10.286l-52-52q-10.286-10.286-10.286-25.714t10.286-25.714l108-108h-286.857q-14.857 0-25.714-10.857t-10.857-25.714v-73.143q0-14.857 10.857-25.714t25.714-10.857h286.857l-108-108q-10.857-10.857-10.857-25.714t10.857-25.714l52-52q10.286-10.286 25.714-10.286t25.714 10.286l258.857 258.857q10.286 10.286 10.286 25.714zM950.857 448q0-119.429-58.857-220.286t-159.714-159.714-220.286-58.857-220.286 58.857-159.714 159.714-58.857 220.286 58.857 220.286 159.714 159.714 220.286 58.857 220.286-58.857 159.714-159.714 58.857-220.286z" />
<glyph unicode="&#xe917;" glyph-name="arrow-circle-up" d="M806.857 448.571q0 15.429-10.286 25.714l-258.857 258.857q-10.286 10.286-25.714 10.286t-25.714-10.286l-258.857-258.857q-10.286-10.286-10.286-25.714t10.286-25.714l52-52q10.286-10.286 25.714-10.286t25.714 10.286l108 108v-286.857q0-14.857 10.857-25.714t25.714-10.857h73.143q14.857 0 25.714 10.857t10.857 25.714v286.857l108-108q10.857-10.857 25.714-10.857t25.714 10.857l52 52q10.286 10.286 10.286 25.714zM950.857 448q0-119.429-58.857-220.286t-159.714-159.714-220.286-58.857-220.286 58.857-159.714 159.714-58.857 220.286 58.857 220.286 159.714 159.714 220.286 58.857 220.286-58.857 159.714-159.714 58.857-220.286z" />
<glyph unicode="&#xe918;" glyph-name="arrow-down" d="M957.143 484.571q0-30.286-21.143-51.429l-372-372.571q-22.286-21.143-52-21.143-30.286 0-51.429 21.143l-372 372.571q-21.714 20.571-21.714 51.429 0 30.286 21.714 52l42.286 42.857q22.286 21.143 52 21.143 30.286 0 51.429-21.143l168-168v402.286q0 29.714 21.714 51.429t51.429 21.714h73.143q29.714 0 51.429-21.714t21.714-51.429v-402.286l168 168q21.143 21.143 51.429 21.143 29.714 0 52-21.143l42.857-42.857q21.143-22.286 21.143-52z" />
<glyph unicode="&#xe919;" glyph-name="arrow-left" d="M950.857 448v-73.143q0-30.286-18.571-51.714t-48.286-21.429h-402.286l167.429-168q21.714-20.571 21.714-51.429t-21.714-51.429l-42.857-43.429q-21.143-21.143-51.429-21.143-29.714 0-52 21.143l-372 372.571q-21.143 21.143-21.143 51.429 0 29.714 21.143 52l372 371.429q21.714 21.714 52 21.714 29.714 0 51.429-21.714l42.857-42.286q21.714-21.714 21.714-52t-21.714-52l-167.429-167.429h402.286q29.714 0 48.286-21.429t18.571-51.714z" />
<glyph unicode="&#xe91a;" glyph-name="arrow-right" d="M914.286 411.429q0-30.857-21.143-52l-372-372q-22.286-21.143-52-21.143-29.143 0-51.429 21.143l-42.857 42.857q-21.714 21.714-21.714 52t21.714 52l167.429 167.429h-402.286q-29.714 0-48.286 21.429t-18.571 51.714v73.143q0 30.286 18.571 51.714t48.286 21.429h402.286l-167.429 168q-21.714 20.571-21.714 51.429t21.714 51.429l42.857 42.857q21.714 21.714 51.429 21.714 30.286 0 52-21.714l372-372q21.143-20 21.143-51.429z" />
<glyph unicode="&#xe91b;" glyph-name="arrows" d="M1024 448q0-14.857-10.857-25.714l-146.286-146.286q-10.857-10.857-25.714-10.857t-25.714 10.857-10.857 25.714v73.143h-219.429v-219.429h73.143q14.857 0 25.714-10.857t10.857-25.714-10.857-25.714l-146.286-146.286q-10.857-10.857-25.714-10.857t-25.714 10.857l-146.286 146.286q-10.857 10.857-10.857 25.714t10.857 25.714 25.714 10.857h73.143v219.429h-219.429v-73.143q0-14.857-10.857-25.714t-25.714-10.857-25.714 10.857l-146.286 146.286q-10.857 10.857-10.857 25.714t10.857 25.714l146.286 146.286q10.857 10.857 25.714 10.857t25.714-10.857 10.857-25.714v-73.143h219.429v219.429h-73.143q-14.857 0-25.714 10.857t-10.857 25.714 10.857 25.714l146.286 146.286q10.857 10.857 25.714 10.857t25.714-10.857l146.286-146.286q10.857-10.857 10.857-25.714t-10.857-25.714-25.714-10.857h-73.143v-219.429h219.429v73.143q0 14.857 10.857 25.714t25.714 10.857 25.714-10.857l146.286-146.286q10.857-10.857 10.857-25.714z" />
<glyph unicode="&#xe91c;" glyph-name="arrows-alt" d="M806.286 650.857l-202.857-202.857 202.857-202.857 82.286 82.286q16.571 17.714 40 8 22.286-9.714 22.286-33.714v-256q0-14.857-10.857-25.714t-25.714-10.857h-256q-24 0-33.714 22.857-9.714 22.286 8 39.429l82.286 82.286-202.857 202.857-202.857-202.857 82.286-82.286q17.714-17.143 8-39.429-9.714-22.857-33.714-22.857h-256q-14.857 0-25.714 10.857t-10.857 25.714v256q0 24 22.857 33.714 22.286 9.714 39.429-8l82.286-82.286 202.857 202.857-202.857 202.857-82.286-82.286q-10.857-10.857-25.714-10.857-6.857 0-13.714 2.857-22.857 9.714-22.857 33.714v256q0 14.857 10.857 25.714t25.714 10.857h256q24 0 33.714-22.857 9.714-22.286-8-39.429l-82.286-82.286 202.857-202.857 202.857 202.857-82.286 82.286q-17.714 17.143-8 39.429 9.714 22.857 33.714 22.857h256q14.857 0 25.714-10.857t10.857-25.714v-256q0-24-22.286-33.714-7.429-2.857-14.286-2.857-14.857 0-25.714 10.857z" />
<glyph unicode="&#xe91d;" glyph-name="arrows-h" d="M1024 448q0-14.857-10.857-25.714l-146.286-146.286q-10.857-10.857-25.714-10.857t-25.714 10.857-10.857 25.714v73.143h-585.143v-73.143q0-14.857-10.857-25.714t-25.714-10.857-25.714 10.857l-146.286 146.286q-10.857 10.857-10.857 25.714t10.857 25.714l146.286 146.286q10.857 10.857 25.714 10.857t25.714-10.857 10.857-25.714v-73.143h585.143v73.143q0 14.857 10.857 25.714t25.714 10.857 25.714-10.857l146.286-146.286q10.857-10.857 10.857-25.714z" />
<glyph unicode="&#xe91e;" glyph-name="arrows-v" d="M694.857 777.143q0-14.857-10.857-25.714t-25.714-10.857h-73.143v-585.143h73.143q14.857 0 25.714-10.857t10.857-25.714-10.857-25.714l-146.286-146.286q-10.857-10.857-25.714-10.857t-25.714 10.857l-146.286 146.286q-10.857 10.857-10.857 25.714t10.857 25.714 25.714 10.857h73.143v585.143h-73.143q-14.857 0-25.714 10.857t-10.857 25.714 10.857 25.714l146.286 146.286q10.857 10.857 25.714 10.857t25.714-10.857l146.286-146.286q10.857-10.857 10.857-25.714z" />
<glyph unicode="&#xe91f;" glyph-name="arrow-up" d="M957.143 405.143q0-29.143-21.143-51.429l-42.857-42.857q-21.714-21.714-52-21.714-30.857 0-51.429 21.714l-168 167.429v-402.286q0-29.714-21.429-48.286t-51.714-18.571h-73.143q-30.286 0-51.714 18.571t-21.429 48.286v402.286l-168-167.429q-20.571-21.714-51.429-21.714t-51.429 21.714l-42.857 42.857q-21.714 21.714-21.714 51.429 0 30.286 21.714 52l372 372q20 21.143 51.429 21.143 30.857 0 52-21.143l372-372q21.143-22.286 21.143-52z" />
<glyph unicode="&#xe920;" glyph-name="asterisk" d="M883.429 360q26.286-14.857 34-44.286t-7.143-55.714l-36.571-62.857q-14.857-26.286-44.286-34t-55.714 7.143l-152 87.429v-175.429q0-29.714-21.714-51.429t-51.429-21.714h-73.143q-29.714 0-51.429 21.714t-21.714 51.429v175.429l-152-87.429q-26.286-14.857-55.714-7.143t-44.286 34l-36.571 62.857q-14.857 26.286-7.143 55.714t34 44.286l152 88-152 88q-26.286 14.857-34 44.286t7.143 55.714l36.571 62.857q14.857 26.286 44.286 34t55.714-7.143l152-87.429v175.429q0 29.714 21.714 51.429t51.429 21.714h73.143q29.714 0 51.429-21.714t21.714-51.429v-175.429l152 87.429q26.286 14.857 55.714 7.143t44.286-34l36.571-62.857q14.857-26.286 7.143-55.714t-34-44.286l-152-88z" />
<glyph unicode="&#xe921;" glyph-name="back-arrow" d="M398.222 647.111v227.556l-398.222-398.222 398.222-398.222v233.244c284.444 0 483.556-91.022 625.778-290.133-56.889 284.444-227.556 568.889-625.778 625.778z" />
<glyph unicode="&#xe922;" glyph-name="backward" d="M961.714 879.429q10.857 10.857 18.286 7.429t7.429-18.286v-841.143q0-14.857-7.429-18.286t-18.286 7.429l-405.714 405.714q-4.571 5.143-7.429 10.857v-405.714q0-14.857-7.429-18.286t-18.286 7.429l-405.714 405.714q-10.857 10.857-10.857 25.714t10.857 25.714l405.714 405.714q10.857 10.857 18.286 7.429t7.429-18.286v-405.714q2.857 6.286 7.429 10.857z" />
<glyph unicode="&#xe923;" glyph-name="black-check-box-with-white-check" d="M910.222 960h-796.444c-62.578 0-113.778-51.2-113.778-113.778v-796.444c0-62.578 51.2-113.778 113.778-113.778h796.444c62.578 0 113.778 51.2 113.778 113.778v796.444c0 62.578-51.2 113.778-113.778 113.778zM398.222 163.556l-284.444 284.444 79.644 79.644 204.8-204.8 432.356 432.356 79.644-79.644-512-512z" />
<glyph unicode="&#xe924;" glyph-name="blank-check-box" d="M910.222 846.222v-796.444h-796.444v796.444h796.444zM910.222 960h-796.444c-62.578 0-113.778-51.2-113.778-113.778v-796.444c0-62.578 51.2-113.778 113.778-113.778h796.444c62.578 0 113.778 51.2 113.778 113.778v796.444c0 62.578-51.2 113.778-113.778 113.778v0z" />
<glyph unicode="&#xe925;" glyph-name="call-made-right-arrow" d="M384 960v-128h422.4l-806.4-806.4 89.6-89.6 806.4 806.4v-422.4h128v640z" />
<glyph unicode="&#xe926;" glyph-name="call-received-arrow" d="M1024 870.4l-89.6 89.6-806.4-806.4v422.4h-128v-640h640v128h-422.4z" />
<glyph unicode="&#xe927;" glyph-name="cancel-button" d="M512 960c-281.6 0-512-230.4-512-512s230.4-512 512-512 512 230.4 512 512-230.4 512-512 512zM768 263.68l-71.68-71.68-184.32 184.32-184.32-184.32-71.68 71.68 184.32 184.32-184.32 184.32 71.68 71.68 184.32-184.32 184.32 184.32 71.68-71.68-184.32-184.32 184.32-184.32z" />
<glyph unicode="&#xe928;" glyph-name="caps-lock-button" d="M512 728.774l379.871-379.871 115.613 115.613-495.484 495.484-495.484-495.484 115.613-115.613 379.871 379.871zM16.516-64h990.968v165.161h-990.968v-165.161z" />
<glyph unicode="&#xe929;" glyph-name="caret-down" d="M804.571 557.714q0-14.857-10.857-25.714l-256-256q-10.857-10.857-25.714-10.857t-25.714 10.857l-256 256q-10.857 10.857-10.857 25.714t10.857 25.714 25.714 10.857h512q14.857 0 25.714-10.857t10.857-25.714z" />
<glyph unicode="&#xe92a;" glyph-name="caret-left" d="M694.857 704v-512q0-14.857-10.857-25.714t-25.714-10.857-25.714 10.857l-256 256q-10.857 10.857-10.857 25.714t10.857 25.714l256 256q10.857 10.857 25.714 10.857t25.714-10.857 10.857-25.714z" />
<glyph unicode="&#xe92b;" glyph-name="caret-right" d="M658.286 448q0-14.857-10.857-25.714l-256-256q-10.857-10.857-25.714-10.857t-25.714 10.857-10.857 25.714v512q0 14.857 10.857 25.714t25.714 10.857 25.714-10.857l256-256q10.857-10.857 10.857-25.714z" />
<glyph unicode="&#xe92c;" glyph-name="caret-square-o-down" d="M727.429 574.286q10.286-20-2.857-37.714l-182.857-256q-10.857-15.429-29.714-15.429t-29.714 15.429l-182.857 256q-13.143 17.714-2.857 37.714 9.714 20 32.571 20h365.714q22.857 0 32.571-20zM804.571 173.714v548.571q0 7.429-5.429 12.857t-12.857 5.429h-548.571q-7.429 0-12.857-5.429t-5.429-12.857v-548.571q0-7.429 5.429-12.857t12.857-5.429h548.571q7.429 0 12.857 5.429t5.429 12.857zM950.857 722.286v-548.571q0-68-48.286-116.286t-116.286-48.286h-548.571q-68 0-116.286 48.286t-48.286 116.286v548.571q0 68 48.286 116.286t116.286 48.286h548.571q68 0 116.286-48.286t48.286-116.286z" />
<glyph unicode="&#xe92d;" glyph-name="caret-square-o-left" d="M658.286 630.857v-365.714q0-14.857-10.857-25.714t-25.714-10.857q-11.429 0-21.143 6.857l-256 182.857q-15.429 10.857-15.429 29.714t15.429 29.714l256 182.857q9.714 6.857 21.143 6.857 14.857 0 25.714-10.857t10.857-25.714zM804.571 173.714v548.571q0 7.429-5.429 12.857t-12.857 5.429h-548.571q-7.429 0-12.857-5.429t-5.429-12.857v-548.571q0-7.429 5.429-12.857t12.857-5.429h548.571q7.429 0 12.857 5.429t5.429 12.857zM950.857 722.286v-548.571q0-68-48.286-116.286t-116.286-48.286h-548.571q-68 0-116.286 48.286t-48.286 116.286v548.571q0 68 48.286 116.286t116.286 48.286h548.571q68 0 116.286-48.286t48.286-116.286z" />
<glyph unicode="&#xe92e;" glyph-name="caret-square-o-right" d="M694.857 448q0-18.857-15.429-29.714l-256-182.857q-17.714-13.143-37.714-2.857-20 9.714-20 32.571v365.714q0 22.857 20 32.571 20 10.286 37.714-2.857l256-182.857q15.429-10.857 15.429-29.714zM804.571 173.714v548.571q0 8-5.143 13.143t-13.143 5.143h-548.571q-8 0-13.143-5.143t-5.143-13.143v-548.571q0-8 5.143-13.143t13.143-5.143h548.571q8 0 13.143 5.143t5.143 13.143zM950.857 722.286v-548.571q0-68-48.286-116.286t-116.286-48.286h-548.571q-68 0-116.286 48.286t-48.286 116.286v548.571q0 68 48.286 116.286t116.286 48.286h548.571q68 0 116.286-48.286t48.286-116.286z" />
<glyph unicode="&#xe92f;" glyph-name="caret-square-o-up" d="M727.429 321.714q-9.714-20-32.571-20h-365.714q-22.857 0-32.571 20-10.286 20 2.857 37.714l182.857 256q10.857 15.429 29.714 15.429t29.714-15.429l182.857-256q13.143-17.714 2.857-37.714zM804.571 173.714v548.571q0 7.429-5.429 12.857t-12.857 5.429h-548.571q-7.429 0-12.857-5.429t-5.429-12.857v-548.571q0-7.429 5.429-12.857t12.857-5.429h548.571q7.429 0 12.857 5.429t5.429 12.857zM950.857 722.286v-548.571q0-68-48.286-116.286t-116.286-48.286h-548.571q-68 0-116.286 48.286t-48.286 116.286v548.571q0 68 48.286 116.286t116.286 48.286h548.571q68 0 116.286-48.286t48.286-116.286z" />
<glyph unicode="&#xe930;" glyph-name="caret-up" d="M804.571 265.143q0-14.857-10.857-25.714t-25.714-10.857h-512q-14.857 0-25.714 10.857t-10.857 25.714 10.857 25.714l256 256q10.857 10.857 25.714 10.857t25.714-10.857l256-256q10.857-10.857 10.857-25.714z" />
<glyph unicode="&#xe931;" glyph-name="cell-phone-high-signal-indicator" d="M0-64h1024v1024z" />
<glyph unicode="&#xe932;" glyph-name="chain" d="M868.571 265.143q0 22.857-16 38.857l-118.857 118.857q-16 16-38.857 16-24 0-41.143-18.286 1.714-1.714 10.857-10.571t12.286-12.286 8.571-10.857 7.429-14.571 2-15.714q0-22.857-16-38.857t-38.857-16q-8.571 0-15.714 2t-14.571 7.429-10.857 8.571-12.286 12.286-10.571 10.857q-18.857-17.714-18.857-41.714 0-22.857 16-38.857l117.714-118.286q15.429-15.429 38.857-15.429 22.857 0 38.857 14.857l84 83.429q16 16 16 38.286zM466.857 668q0 22.857-16 38.857l-117.714 118.286q-16 16-38.857 16-22.286 0-38.857-15.429l-84-83.429q-16-16-16-38.286 0-22.857 16-38.857l118.857-118.857q15.429-15.429 38.857-15.429 24 0 41.143 17.714-1.714 1.714-10.857 10.571t-12.286 12.286-8.571 10.857-7.429 14.571-2 15.714q0 22.857 16 38.857t38.857 16q8.571 0 15.714-2t14.571-7.429 10.857-8.571 12.286-12.286 10.571-10.857q18.857 17.714 18.857 41.714zM978.286 265.143q0-68.571-48.571-116l-84-83.429q-47.429-47.429-116-47.429-69.143 0-116.571 48.571l-117.714 118.286q-47.429 47.429-47.429 116 0 70.286 50.286 119.429l-50.286 50.286q-49.143-50.286-118.857-50.286-68.571 0-116.571 48l-118.857 118.857q-48 48-48 116.571t48.571 116l84 83.429q47.429 47.429 116 47.429 69.143 0 116.571-48.571l117.714-118.286q47.429-47.429 47.429-116 0-70.286-50.286-119.429l50.286-50.286q49.143 50.286 118.857 50.286 68.571 0 116.571-48l118.857-118.857q48-48 48-116.571z" />
<glyph unicode="&#xe933;" glyph-name="change-power-options" d="M279.273-64h93.091v93.091h-93.091v-93.091zM465.455-64h93.091v93.091h-93.091v-93.091zM558.545 960h-93.091v-465.455h93.091v465.455zM726.109 848.291l-65.164-65.164c74.475-51.2 130.327-139.636 130.327-242.036 0-153.6-125.673-279.273-279.273-279.273s-279.273 125.673-279.273 279.273c0 102.4 55.855 190.836 134.982 237.382l-69.818 69.818c-93.091-69.818-158.255-181.527-158.255-307.2 0-204.8 167.564-372.364 372.364-372.364s372.364 167.564 372.364 372.364c0 125.673-65.164 237.382-158.255 307.2zM651.636-64h93.091v93.091h-93.091v-93.091z" />
<glyph unicode="&#xe934;" glyph-name="check" d="M954.857 636.571q0-22.857-16-38.857l-491.429-491.429q-16-16-38.857-16t-38.857 16l-284.571 284.571q-16 16-16 38.857t16 38.857l77.714 77.714q16 16 38.857 16t38.857-16l168-168.571 374.857 375.429q16 16 38.857 16t38.857-16l77.714-77.714q16-16 16-38.857z" />
<glyph unicode="&#xe935;" glyph-name="check-box" d="M278.756 556.089l-79.644-79.644 256-256 568.889 568.889-79.644 79.644-489.244-489.244-176.356 176.356zM910.222 49.778h-796.444v796.444h568.889v113.778h-568.889c-62.578 0-113.778-51.2-113.778-113.778v-796.444c0-62.578 51.2-113.778 113.778-113.778h796.444c62.578 0 113.778 51.2 113.778 113.778v455.111h-113.778v-455.111z" />
<glyph unicode="&#xe936;" glyph-name="check-circle" d="M806.857 540.571q0 16-10.286 26.286l-52 51.429q-10.857 10.857-25.714 10.857t-25.714-10.857l-233.143-232.571-129.143 129.143q-10.857 10.857-25.714 10.857t-25.714-10.857l-52-51.429q-10.286-10.286-10.286-26.286 0-15.429 10.286-25.714l206.857-206.857q10.857-10.857 25.714-10.857 15.429 0 26.286 10.857l310.286 310.286q10.286 10.286 10.286 25.714zM950.857 448q0-119.429-58.857-220.286t-159.714-159.714-220.286-58.857-220.286 58.857-159.714 159.714-58.857 220.286 58.857 220.286 159.714 159.714 220.286 58.857 220.286-58.857 159.714-159.714 58.857-220.286z" />
<glyph unicode="&#xe937;" glyph-name="check-circle-o" d="M742.286 495.429l-241.143-241.143q-10.857-10.857-25.714-10.857t-25.714 10.857l-168 168q-10.857 10.857-10.857 25.714t10.857 25.714l58.286 58.286q10.857 10.857 25.714 10.857t25.714-10.857l84-84 157.143 157.143q10.857 10.857 25.714 10.857t25.714-10.857l58.286-58.286q10.857-10.857 10.857-25.714t-10.857-25.714zM822.857 448q0 84.571-41.714 156t-113.143 113.143-156 41.714-156-41.714-113.143-113.143-41.714-156 41.714-156 113.143-113.143 156-41.714 156 41.714 113.143 113.143 41.714 156zM950.857 448q0-119.429-58.857-220.286t-159.714-159.714-220.286-58.857-220.286 58.857-159.714 159.714-58.857 220.286 58.857 220.286 159.714 159.714 220.286 58.857 220.286-58.857 159.714-159.714 58.857-220.286z" />
<glyph unicode="&#xe938;" glyph-name="check-square" d="M464.571 217.714l350.857 350.857q10.857 10.857 10.857 25.714t-10.857 25.714l-58.286 58.286q-10.857 10.857-25.714 10.857t-25.714-10.857l-266.857-266.857-120.571 120.571q-10.857 10.857-25.714 10.857t-25.714-10.857l-58.286-58.286q-10.857-10.857-10.857-25.714t10.857-25.714l204.571-204.571q10.857-10.857 25.714-10.857t25.714 10.857zM950.857 722.286v-548.571q0-68-48.286-116.286t-116.286-48.286h-548.571q-68 0-116.286 48.286t-48.286 116.286v548.571q0 68 48.286 116.286t116.286 48.286h548.571q68 0 116.286-48.286t48.286-116.286z" />
<glyph unicode="&#xe939;" glyph-name="check-square-o" d="M841.143 428.571v-181.714q0-68-48.286-116.286t-116.286-48.286h-475.429q-68 0-116.286 48.286t-48.286 116.286v475.429q0 68 48.286 116.286t116.286 48.286h475.429q36 0 66.857-14.286 8.571-4 10.286-13.143 1.714-9.714-5.143-16.571l-28-28q-5.714-5.714-13.143-5.714-1.714 0-5.143 1.143-13.143 3.429-25.714 3.429h-475.429q-37.714 0-64.571-26.857t-26.857-64.571v-475.429q0-37.714 26.857-64.571t64.571-26.857h475.429q37.714 0 64.571 26.857t26.857 64.571v145.143q0 7.429 5.143 12.571l36.571 36.571q5.714 5.714 13.143 5.714 3.429 0 6.857-1.714 11.429-4.571 11.429-16.571zM973.143 708l-465.143-465.143q-13.714-13.714-32.571-13.714t-32.571 13.714l-245.714 245.714q-13.714 13.714-13.714 32.571t13.714 32.571l62.857 62.857q13.714 13.714 32.571 13.714t32.571-13.714l150.286-150.286 369.714 369.714q13.714 13.714 32.571 13.714t32.571-13.714l62.857-62.857q13.714-13.714 13.714-32.571t-13.714-32.571z" />
<glyph unicode="&#xe93a;" glyph-name="check-symbol" d="M325.818 221.091l-244.364 244.364-81.455-81.455 325.818-325.818 698.182 698.182-81.455 81.455z" />
<glyph unicode="&#xe93b;" glyph-name="chevron-circle-down" d="M537.714 217.714l259.429 259.429q10.857 10.857 10.857 25.714t-10.857 25.714l-58.286 58.286q-10.857 10.857-25.714 10.857t-25.714-10.857l-175.429-175.429-175.429 175.429q-10.857 10.857-25.714 10.857t-25.714-10.857l-58.286-58.286q-10.857-10.857-10.857-25.714t10.857-25.714l259.429-259.429q10.857-10.857 25.714-10.857t25.714 10.857zM950.857 448q0-119.429-58.857-220.286t-159.714-159.714-220.286-58.857-220.286 58.857-159.714 159.714-58.857 220.286 58.857 220.286 159.714 159.714 220.286 58.857 220.286-58.857 159.714-159.714 58.857-220.286z" />
<glyph unicode="&#xe93c;" glyph-name="chevron-circle-left" d="M592.571 162.857l58.286 58.286q10.857 10.857 10.857 25.714t-10.857 25.714l-175.429 175.429 175.429 175.429q10.857 10.857 10.857 25.714t-10.857 25.714l-58.286 58.286q-10.857 10.857-25.714 10.857t-25.714-10.857l-259.429-259.429q-10.857-10.857-10.857-25.714t10.857-25.714l259.429-259.429q10.857-10.857 25.714-10.857t25.714 10.857zM950.857 448q0-119.429-58.857-220.286t-159.714-159.714-220.286-58.857-220.286 58.857-159.714 159.714-58.857 220.286 58.857 220.286 159.714 159.714 220.286 58.857 220.286-58.857 159.714-159.714 58.857-220.286z" />
<glyph unicode="&#xe93d;" glyph-name="chevron-circle-right" d="M482.857 162.857l259.429 259.429q10.857 10.857 10.857 25.714t-10.857 25.714l-259.429 259.429q-10.857 10.857-25.714 10.857t-25.714-10.857l-58.286-58.286q-10.857-10.857-10.857-25.714t10.857-25.714l175.429-175.429-175.429-175.429q-10.857-10.857-10.857-25.714t10.857-25.714l58.286-58.286q10.857-10.857 25.714-10.857t25.714 10.857zM950.857 448q0-119.429-58.857-220.286t-159.714-159.714-220.286-58.857-220.286 58.857-159.714 159.714-58.857 220.286 58.857 220.286 159.714 159.714 220.286 58.857 220.286-58.857 159.714-159.714 58.857-220.286z" />
<glyph unicode="&#xe93e;" glyph-name="chevron-circle-up" d="M738.857 309.143l58.286 58.286q10.857 10.857 10.857 25.714t-10.857 25.714l-259.429 259.429q-10.857 10.857-25.714 10.857t-25.714-10.857l-259.429-259.429q-10.857-10.857-10.857-25.714t10.857-25.714l58.286-58.286q10.857-10.857 25.714-10.857t25.714 10.857l175.429 175.429 175.429-175.429q10.857-10.857 25.714-10.857t25.714 10.857zM950.857 448q0-119.429-58.857-220.286t-159.714-159.714-220.286-58.857-220.286 58.857-159.714 159.714-58.857 220.286 58.857 220.286 159.714 159.714 220.286 58.857 220.286-58.857 159.714-159.714 58.857-220.286z" />
<glyph unicode="&#xe93f;" glyph-name="chevron-down" d="M961.714 498.286l-424-423.429q-10.857-10.857-25.714-10.857t-25.714 10.857l-424 423.429q-10.857 10.857-10.857 26t10.857 26l94.857 94.286q10.857 10.857 25.714 10.857t25.714-10.857l303.429-303.429 303.429 303.429q10.857 10.857 25.714 10.857t25.714-10.857l94.857-94.286q10.857-10.857 10.857-26t-10.857-26z" />
<glyph unicode="&#xe940;" glyph-name="chevron-left" d="M815.429 788l-303.429-303.429 303.429-303.429q10.857-10.857 10.857-25.714t-10.857-25.714l-94.857-94.857q-10.857-10.857-25.714-10.857t-25.714 10.857l-424 424q-10.857 10.857-10.857 25.714t10.857 25.714l424 424q10.857 10.857 25.714 10.857t25.714-10.857l94.857-94.857q10.857-10.857 10.857-25.714t-10.857-25.714z" />
<glyph unicode="&#xe941;" glyph-name="chevron-right" d="M778.857 458.857l-424-424q-10.857-10.857-25.714-10.857t-25.714 10.857l-94.857 94.857q-10.857 10.857-10.857 25.714t10.857 25.714l303.429 303.429-303.429 303.429q-10.857 10.857-10.857 25.714t10.857 25.714l94.857 94.857q10.857 10.857 25.714 10.857t25.714-10.857l424-424q10.857-10.857 10.857-25.714t-10.857-25.714z" />
<glyph unicode="&#xe942;" glyph-name="chevron-up" d="M961.714 199.429l-94.857-94.286q-10.857-10.857-25.714-10.857t-25.714 10.857l-303.429 303.429-303.429-303.429q-10.857-10.857-25.714-10.857t-25.714 10.857l-94.857 94.286q-10.857 10.857-10.857 26t10.857 26l424 423.429q10.857 10.857 25.714 10.857t25.714-10.857l424-423.429q10.857-10.857 10.857-26t-10.857-26z" />
<glyph unicode="&#xe943;" glyph-name="circle" d="M950.857 448q0-119.429-58.857-220.286t-159.714-159.714-220.286-58.857-220.286 58.857-159.714 159.714-58.857 220.286 58.857 220.286 159.714 159.714 220.286 58.857 220.286-58.857 159.714-159.714 58.857-220.286z" />
<glyph unicode="&#xe944;" glyph-name="circle-o" d="M512 758.857q-84.571 0-156-41.714t-113.143-113.143-41.714-156 41.714-156 113.143-113.143 156-41.714 156 41.714 113.143 113.143 41.714 156-41.714 156-113.143 113.143-156 41.714zM950.857 448q0-119.429-58.857-220.286t-159.714-159.714-220.286-58.857-220.286 58.857-159.714 159.714-58.857 220.286 58.857 220.286 159.714 159.714 220.286 58.857 220.286-58.857 159.714-159.714 58.857-220.286z" />
<glyph unicode="&#xe945;" glyph-name="circle-o-notch" d="M1005.714 448q0-100.571-39.143-192t-105.143-157.429-157.429-105.143-192-39.143-192 39.143-157.429 105.143-105.143 157.429-39.143 192q0 121.714 55.429 227.714t151.429 174.571 213.714 86.286v-130.286q-126.286-25.714-209.429-126.286t-83.143-232q0-74.286 29.143-142t78-116.571 116.571-78 142-29.143 142 29.143 116.571 78 78 116.571 29.143 142q0 131.429-83.143 232t-209.429 126.286v130.286q117.714-17.714 213.714-86.286t151.429-174.571 55.429-227.714z" />
<glyph unicode="&#xe946;" glyph-name="circle-outline" d="M512 960c-281.6 0-512-230.4-512-512s230.4-512 512-512 512 230.4 512 512-230.4 512-512 512zM512 38.4c-225.28 0-409.6 184.32-409.6 409.6s184.32 409.6 409.6 409.6 409.6-184.32 409.6-409.6-184.32-409.6-409.6-409.6z" />
<glyph unicode="&#xe947;" glyph-name="circle-thin" d="M512 813.714q-74.286 0-142-29.143t-116.571-78-78-116.571-29.143-142 29.143-142 78-116.571 116.571-78 142-29.143 142 29.143 116.571 78 78 116.571 29.143 142-29.143 142-78 116.571-116.571 78-142 29.143zM950.857 448q0-119.429-58.857-220.286t-159.714-159.714-220.286-58.857-220.286 58.857-159.714 159.714-58.857 220.286 58.857 220.286 159.714 159.714 220.286 58.857 220.286-58.857 159.714-159.714 58.857-220.286z" />
<glyph unicode="&#xe948;" glyph-name="circle-with-check-symbol" d="M512 960c-281.6 0-512-230.4-512-512s230.4-512 512-512 512 230.4 512 512-230.4 512-512 512zM409.6 192l-256 256 71.68 71.68 184.32-184.32 389.12 389.12 71.68-71.68-460.8-460.8z" />
<glyph unicode="&#xe949;" glyph-name="circumference" d="M512 960c-281.6 0-512-230.4-512-512s230.4-512 512-512 512 230.4 512 512-230.4 512-512 512zM512 38.4c-225.28 0-409.6 184.32-409.6 409.6s184.32 409.6 409.6 409.6 409.6-184.32 409.6-409.6-184.32-409.6-409.6-409.6z" />
<glyph unicode="&#xe94a;" glyph-name="clear-button" d="M1024 857.6l-102.4 102.4-409.6-409.6-409.6 409.6-102.4-102.4 409.6-409.6-409.6-409.6 102.4-102.4 409.6 409.6 409.6-409.6 102.4 102.4-409.6 409.6z" />
<glyph unicode="&#xe94b;" glyph-name="clone" d="M950.857 27.429v621.714q0 7.429-5.429 12.857t-12.857 5.429h-621.714q-7.429 0-12.857-5.429t-5.429-12.857v-621.714q0-7.429 5.429-12.857t12.857-5.429h621.714q7.429 0 12.857 5.429t5.429 12.857zM1024 649.143v-621.714q0-37.714-26.857-64.571t-64.571-26.857h-621.714q-37.714 0-64.571 26.857t-26.857 64.571v621.714q0 37.714 26.857 64.571t64.571 26.857h621.714q37.714 0 64.571-26.857t26.857-64.571zM804.571 868.571v-91.429h-73.143v91.429q0 7.429-5.429 12.857t-12.857 5.429h-621.714q-7.429 0-12.857-5.429t-5.429-12.857v-621.714q0-7.429 5.429-12.857t12.857-5.429h91.429v-73.143h-91.429q-37.714 0-64.571 26.857t-26.857 64.571v621.714q0 37.714 26.857 64.571t64.571 26.857h621.714q37.714 0 64.571-26.857t26.857-64.571z" />
<glyph unicode="&#xe94c;" glyph-name="close" d="M851.429 204.571q0-22.857-16-38.857l-77.714-77.714q-16-16-38.857-16t-38.857 16l-168 168-168-168q-16-16-38.857-16t-38.857 16l-77.714 77.714q-16 16-16 38.857t16 38.857l168 168-168 168q-16 16-16 38.857t16 38.857l77.714 77.714q16 16 38.857 16t38.857-16l168-168 168 168q16 16 38.857 16t38.857-16l77.714-77.714q16-16 16-38.857t-16-38.857l-168-168 168-168q16-16 16-38.857z" />
<glyph unicode="&#xe94d;" glyph-name="close-button" d="M1024 857.6l-102.4 102.4-409.6-409.6-409.6 409.6-102.4-102.4 409.6-409.6-409.6-409.6 102.4-102.4 409.6 409.6 409.6-409.6 102.4 102.4-409.6 409.6z" />
<glyph unicode="&#xe94e;" glyph-name="compress" d="M512 411.429v-256q0-14.857-10.857-25.714t-25.714-10.857-25.714 10.857l-82.286 82.286-189.714-189.714q-5.714-5.714-13.143-5.714t-13.143 5.714l-65.143 65.143q-5.714 5.714-5.714 13.143t5.714 13.143l189.714 189.714-82.286 82.286q-10.857 10.857-10.857 25.714t10.857 25.714 25.714 10.857h256q14.857 0 25.714-10.857t10.857-25.714zM943.429 795.429q0-7.429-5.714-13.143l-189.714-189.714 82.286-82.286q10.857-10.857 10.857-25.714t-10.857-25.714-25.714-10.857h-256q-14.857 0-25.714 10.857t-10.857 25.714v256q0 14.857 10.857 25.714t25.714 10.857 25.714-10.857l82.286-82.286 189.714 189.714q5.714 5.714 13.143 5.714t13.143-5.714l65.143-65.143q5.714-5.714 5.714-13.143z" />
<glyph unicode="&#xe94f;" glyph-name="crop-button" d="M0 846.222v-227.556h113.778v227.556h227.556v113.778h-227.556c-62.578 0-113.778-51.2-113.778-113.778zM113.778 277.333h-113.778v-227.556c0-62.578 51.2-113.778 113.778-113.778h227.556v113.778h-227.556v227.556zM910.222 49.778h-227.556v-113.778h227.556c62.578 0 113.778 51.2 113.778 113.778v227.556h-113.778v-227.556zM910.222 960h-227.556v-113.778h227.556v-227.556h113.778v227.556c0 62.578-51.2 113.778-113.778 113.778z" />
<glyph unicode="&#xe950;" glyph-name="do-not-disturb-rounded-sign" d="M512 960c-281.6 0-512-230.4-512-512s230.4-512 512-512 512 230.4 512 512-230.4 512-512 512zM102.4 448c0 225.28 184.32 409.6 409.6 409.6 92.16 0 179.2-30.72 250.88-87.040l-573.44-573.44c-56.32 71.68-87.040 158.72-87.040 250.88zM512 38.4c-92.16 0-179.2 30.72-250.88 87.040l573.44 573.44c56.32-71.68 87.040-158.72 87.040-250.88 0-225.28-184.32-409.6-409.6-409.6z" />
<glyph unicode="&#xe951;" glyph-name="download-button" d="M933.647 598.588h-240.941v361.412h-361.412v-361.412h-240.941l421.647-421.647 421.647 421.647zM90.353 56.471v-120.471h843.294v120.471h-843.294z" />
<glyph unicode="&#xe952;" glyph-name="downwards-arrow-key" d="M119.467 763.733l392.533-392.537 392.533 392.537 119.467-119.47-512-511.997-512 511.997z" />
<glyph unicode="&#xe953;" glyph-name="drop-down-arrow" d="M0 704l512-512 512 512z" />
<glyph unicode="&#xe954;" glyph-name="drop-down-round-button" d="M512 960c-281.6 0-512-230.4-512-512s230.4-512 512-512 512 230.4 512 512-230.4 512-512 512zM512 345.6l-204.8 204.8h409.6l-204.8-204.8z" />
<glyph unicode="&#xe955;" glyph-name="drop-up-arrow" d="M0 192l512 512 512-512z" />
<glyph unicode="&#xe956;" glyph-name="eject" d="M80.571 400.571l405.714 405.714q10.857 10.857 25.714 10.857t25.714-10.857l405.714-405.714q10.857-10.857 7.429-18.286t-18.286-7.429h-841.143q-14.857 0-18.286 7.429t7.429 18.286zM914.286 82.286h-804.571q-14.857 0-25.714 10.857t-10.857 25.714v146.286q0 14.857 10.857 25.714t25.714 10.857h804.571q14.857 0 25.714-10.857t10.857-25.714v-146.286q0-14.857-10.857-25.714t-25.714-10.857z" />
<glyph unicode="&#xe957;" glyph-name="ellipsis-h" d="M329.143 539.429v-109.714q0-22.857-16-38.857t-38.857-16h-109.714q-22.857 0-38.857 16t-16 38.857v109.714q0 22.857 16 38.857t38.857 16h109.714q22.857 0 38.857-16t16-38.857zM621.714 539.429v-109.714q0-22.857-16-38.857t-38.857-16h-109.714q-22.857 0-38.857 16t-16 38.857v109.714q0 22.857 16 38.857t38.857 16h109.714q22.857 0 38.857-16t16-38.857zM914.286 539.429v-109.714q0-22.857-16-38.857t-38.857-16h-109.714q-22.857 0-38.857 16t-16 38.857v109.714q0 22.857 16 38.857t38.857 16h109.714q22.857 0 38.857-16t16-38.857z" />
<glyph unicode="&#xe958;" glyph-name="ellipsis-v" d="M621.714 246.857v-109.714q0-22.857-16-38.857t-38.857-16h-109.714q-22.857 0-38.857 16t-16 38.857v109.714q0 22.857 16 38.857t38.857 16h109.714q22.857 0 38.857-16t16-38.857zM621.714 539.429v-109.714q0-22.857-16-38.857t-38.857-16h-109.714q-22.857 0-38.857 16t-16 38.857v109.714q0 22.857 16 38.857t38.857 16h109.714q22.857 0 38.857-16t16-38.857zM621.714 832v-109.714q0-22.857-16-38.857t-38.857-16h-109.714q-22.857 0-38.857 16t-16 38.857v109.714q0 22.857 16 38.857t38.857 16h109.714q22.857 0 38.857-16t16-38.857z" />
<glyph unicode="&#xe959;" glyph-name="exchange" d="M1024 283.429v-109.714q0-7.429-5.429-12.857t-12.857-5.429h-786.286v-109.714q0-7.429-5.429-12.857t-12.857-5.429q-6.857 0-13.714 5.714l-182.286 182.857q-5.143 5.143-5.143 12.571 0 8 5.143 13.143l182.857 182.857q5.143 5.143 13.143 5.143 7.429 0 12.857-5.429t5.429-12.857v-109.714h786.286q7.429 0 12.857-5.429t5.429-12.857zM1024 594.286q0-8-5.143-13.143l-182.857-182.857q-5.143-5.143-13.143-5.143-7.429 0-12.857 5.429t-5.429 12.857v109.714h-786.286q-7.429 0-12.857 5.429t-5.429 12.857v109.714q0 7.429 5.429 12.857t12.857 5.429h786.286v109.714q0 8 5.143 13.143t13.143 5.143q6.857 0 13.714-5.714l182.286-182.286q5.143-5.143 5.143-13.143z" />
<glyph unicode="&#xe95a;" glyph-name="exclamation" d="M621.714 246.857v-128q0-14.857-10.857-25.714t-25.714-10.857h-146.286q-14.857 0-25.714 10.857t-10.857 25.714v128q0 14.857 10.857 25.714t25.714 10.857h146.286q14.857 0 25.714-10.857t10.857-25.714zM638.857 850.286l-16-438.857q-0.571-14.857-11.714-25.714t-26-10.857h-146.286q-14.857 0-26 10.857t-11.714 25.714l-16 438.857q-0.571 14.857 10 25.714t25.429 10.857h182.857q14.857 0 25.429-10.857t10-25.714z" />
<glyph unicode="&#xe95b;" glyph-name="exclamation-circle" d="M512 886.857q119.429 0 220.286-58.857t159.714-159.714 58.857-220.286-58.857-220.286-159.714-159.714-220.286-58.857-220.286 58.857-159.714 159.714-58.857 220.286 58.857 220.286 159.714 159.714 220.286 58.857zM585.143 174.286v108.571q0 8-5.143 13.429t-12.571 5.429h-109.714q-7.429 0-13.143-5.714t-5.714-13.143v-108.571q0-7.429 5.714-13.143t13.143-5.714h109.714q7.429 0 12.571 5.429t5.143 13.429zM584 370.857l10.286 354.857q0 6.857-5.714 10.286-5.714 4.571-13.714 4.571h-125.714q-8 0-13.714-4.571-5.714-3.429-5.714-10.286l9.714-354.857q0-5.714 5.714-10t13.714-4.286h105.714q8 0 13.429 4.286t6 10z" />
<glyph unicode="&#xe95c;" glyph-name="exclamation-triangle" d="M585.143 174.286v108.571q0 8-5.429 13.429t-12.857 5.429h-109.714q-7.429 0-12.857-5.429t-5.429-13.429v-108.571q0-8 5.429-13.429t12.857-5.429h109.714q7.429 0 12.857 5.429t5.429 13.429zM584 388l10.286 262.286q0 6.857-5.714 10.857-7.429 6.286-13.714 6.286h-125.714q-6.286 0-13.714-6.286-5.714-4-5.714-12l9.714-261.143q0-5.714 5.714-9.429t13.714-3.714h105.714q8 0 13.429 3.714t6 9.429zM576 921.714l438.857-804.571q20-36-1.143-72-9.714-16.571-26.571-26.286t-36.286-9.714h-877.714q-19.429 0-36.286 9.714t-26.571 26.286q-21.143 36-1.143 72l438.857 804.571q9.714 17.714 26.857 28t37.143 10.286 37.143-10.286 26.857-28z" />
<glyph unicode="&#xe95d;" glyph-name="expand" d="M504.571 356.571q0-7.429-5.714-13.143l-189.714-189.714 82.286-82.286q10.857-10.857 10.857-25.714t-10.857-25.714-25.714-10.857h-256q-14.857 0-25.714 10.857t-10.857 25.714v256q0 14.857 10.857 25.714t25.714 10.857 25.714-10.857l82.286-82.286 189.714 189.714q5.714 5.714 13.143 5.714t13.143-5.714l65.143-65.143q5.714-5.714 5.714-13.143zM950.857 850.286v-256q0-14.857-10.857-25.714t-25.714-10.857-25.714 10.857l-82.286 82.286-189.714-189.714q-5.714-5.714-13.143-5.714t-13.143 5.714l-65.143 65.143q-5.714 5.714-5.714 13.143t5.714 13.143l189.714 189.714-82.286 82.286q-10.857 10.857-10.857 25.714t10.857 25.714 25.714 10.857h256q14.857 0 25.714-10.857t10.857-25.714z" />
<glyph unicode="&#xe95e;" glyph-name="expand-arrow" d="M512 763.733l-512-512 119.467-119.467 392.533 392.533 392.533-392.533 119.467 119.467z" />
<glyph unicode="&#xe95f;" glyph-name="expand-button" d="M904.533 763.733l-392.533-392.533-392.533 392.533-119.467-119.467 512-512 512 512z" />
<glyph unicode="&#xe960;" glyph-name="external-link" d="M804.571 429.714v-182.857q0-68-48.286-116.286t-116.286-48.286h-475.429q-68 0-116.286 48.286t-48.286 116.286v475.429q0 68 48.286 116.286t116.286 48.286h402.286q8 0 13.143-5.143t5.143-13.143v-36.571q0-8-5.143-13.143t-13.143-5.143h-402.286q-37.714 0-64.571-26.857t-26.857-64.571v-475.429q0-37.714 26.857-64.571t64.571-26.857h475.429q37.714 0 64.571 26.857t26.857 64.571v182.857q0 8 5.143 13.143t13.143 5.143h36.571q8 0 13.143-5.143t5.143-13.143zM1024 923.429v-292.571q0-14.857-10.857-25.714t-25.714-10.857-25.714 10.857l-100.571 100.571-372.571-372.571q-5.714-5.714-13.143-5.714t-13.143 5.714l-65.143 65.143q-5.714 5.714-5.714 13.143t5.714 13.143l372.571 372.571-100.571 100.571q-10.857 10.857-10.857 25.714t10.857 25.714 25.714 10.857h292.571q14.857 0 25.714-10.857t10.857-25.714z" />
<glyph unicode="&#xe961;" glyph-name="external-link-square" d="M804.571 429.714v274.286q0 14.857-10.857 25.714t-25.714 10.857h-274.286q-24 0-33.714-22.286-9.714-23.429 8-40l82.286-82.286-305.143-305.143q-10.857-10.857-10.857-25.714t10.857-25.714l58.286-58.286q10.857-10.857 25.714-10.857t25.714 10.857l305.143 305.143 82.286-82.286q10.286-10.857 25.714-10.857 6.857 0 14.286 2.857 22.286 9.714 22.286 33.714zM950.857 722.286v-548.571q0-68-48.286-116.286t-116.286-48.286h-548.571q-68 0-116.286 48.286t-48.286 116.286v548.571q0 68 48.286 116.286t116.286 48.286h548.571q68 0 116.286-48.286t48.286-116.286z" />
<glyph unicode="&#xe962;" glyph-name="fast-forward-button" d="M0 96.914l497.371 351.086-497.371 351.086v-702.171zM526.629 799.086v-702.171l497.371 351.086-497.371 351.086z" />
<glyph unicode="&#xe963;" glyph-name="filled-circle" d="M512 960c-281.6 0-512-230.4-512-512s230.4-512 512-512 512 230.4 512 512-230.4 512-512 512z" />
<glyph unicode="&#xe964;" glyph-name="folder-symbol" d="M409.6 857.6h-307.2c-56.32 0-102.4-46.080-102.4-102.4v-614.4c0-56.32 46.080-102.4 102.4-102.4h819.2c56.32 0 102.4 46.080 102.4 102.4v512c0 56.32-46.080 102.4-102.4 102.4h-409.6l-102.4 102.4z" />
<glyph unicode="&#xe965;" glyph-name="forward-arrow" d="M1024 476.444l-398.222 398.222v-227.556c-398.222-56.889-568.889-341.333-625.778-625.778 142.222 199.111 341.333 290.133 625.778 290.133v-233.244l398.222 398.222z" />
<glyph unicode="&#xe966;" glyph-name="forward-right-arrow-button" d="M512 704v256l512-512-512-512v256h-512v512z" />
<glyph unicode="&#xe967;" glyph-name="full-screen-exit" d="M0 155.429h219.429v-219.429h146.286v365.714h-365.714v-146.286zM219.429 740.571h-219.429v-146.286h365.714v365.714h-146.286v-219.429zM658.286-64h146.286v219.429h219.429v146.286h-365.714v-365.714zM804.571 740.571v219.429h-146.286v-365.714h365.714v146.286h-219.429z" />
<glyph unicode="&#xe968;" glyph-name="get-directions-button" d="M1008.64 483.842l-460.8 460.8c-20.478 20.48-51.2 20.48-71.68 0l-460.8-460.8c-20.48-20.48-20.48-51.202 0-71.68l460.8-460.8c20.48-20.48 51.202-20.48 71.68 0l460.8 460.8c20.48 20.478 20.48 51.198 0 71.68zM614.4 320v128h-204.8v-153.6h-102.4v204.8c0 30.72 20.48 51.2 51.2 51.2h256v128l179.2-179.2-179.2-179.2z" />
<glyph unicode="&#xe969;" glyph-name="get-pocket" d="M914.857 886.857q37.143 0 62.857-26t25.714-63.143v-296.571q0-100.571-38.857-192t-104.286-157.143-156.571-104.286-191.143-38.571q-100.571 0-191.714 38.571t-156.857 104.286-104.571 157.143-38.857 192v296.571q0 36.571 26.286 62.857t62.857 26.286h805.143zM512.571 278.857q26.857 0 46.857 18.857l230.857 221.714q21.143 20 21.143 48.571 0 28-19.714 47.714t-47.714 19.714q-26.857 0-46.857-18.857l-184.571-177.143-184.571 177.143q-20 18.857-46.286 18.857-28 0-47.714-19.714t-19.714-47.714q0-29.143 20.571-48.571l231.429-221.714q18.857-18.857 46.286-18.857z" />
<glyph unicode="&#xe96a;" glyph-name="go-back-left-arrow" d="M1024 512h-780.8l358.4 358.4-89.6 89.6-512-512 512-512 89.6 89.6-358.4 358.4h780.8v128z" />
<glyph unicode="&#xe96b;" glyph-name="google-apps-script-logo" d="M910.222 960h-796.444c-62.578 0-113.778-51.2-113.778-113.778v-796.444c0-62.578 51.2-113.778 113.778-113.778h796.444c62.578 0 113.778 51.2 113.778 113.778v796.444c0 62.578-51.2 113.778-113.778 113.778zM455.111 163.556v170.667h-341.333v227.556h341.333v170.667l284.444-284.444-284.444-284.444z" />
<glyph unicode="&#xe96c;" glyph-name="import-export-arrows" d="M341.333 960l-227.556-227.556h170.667v-398.222h113.778v398.222h170.667l-227.556 227.556zM739.556 163.556v398.222h-113.778v-398.222h-170.667l227.556-227.556 227.556 227.556h-170.667z" />
<glyph unicode="&#xe96d;" glyph-name="keyboard-left-arrow-button" d="M827.733 840.533l-119.467 119.467-512-512 512-512 119.467 119.467-392.533 392.533z" />
<glyph unicode="&#xe96e;" glyph-name="keyboard-right-arrow-button" d="M315.733 960l-119.467-119.467 392.533-392.533-392.533-392.533 119.467-119.467 512 512z" />
<glyph unicode="&#xe96f;" glyph-name="left-arrow-key-1" d="M1024 504.889h-807.822l204.8 204.8-79.644 79.644-341.333-341.333 341.333-341.333 79.644 79.644-204.8 204.8h807.822z" />
<glyph unicode="&#xe970;" glyph-name="left-arrow-missed-call" d="M944.356 743.822l-432.356-432.356-318.578 318.578h261.689v113.778h-455.111v-455.111h113.778v261.689l398.222-398.222 512 512z" />
<glyph unicode="&#xe971;" glyph-name="location-arrow" d="M0 448h512v-512h56.889l455.111 1024-1024-455.111z" />
<glyph unicode="&#xe972;" glyph-name="long-arrow-down" d="M729.714 217.714q4.571-10.857-2.857-20l-200-219.429q-5.714-5.714-13.143-5.714-8 0-13.714 5.714l-202.857 219.429q-7.429 9.143-2.857 20 5.143 10.857 16.571 10.857h128v713.143q0 8 5.143 13.143t13.143 5.143h109.714q8 0 13.143-5.143t5.143-13.143v-713.143h128q12 0 16.571-10.857z" />
<glyph unicode="&#xe973;" glyph-name="long-arrow-left" d="M1024 502.857v-109.714q0-8-5.143-13.143t-13.143-5.143h-713.143v-128q0-12-10.857-16.571t-20 2.857l-219.429 200q-5.714 5.714-5.714 13.143 0 8 5.714 13.714l219.429 202.286q9.143 8 20 3.429 10.857-5.143 10.857-16.571v-128h713.143q8 0 13.143-5.143t5.143-13.143z" />
<glyph unicode="&#xe974;" glyph-name="long-arrow-right" d="M987.429 449.714q0-8-5.714-13.714l-219.429-202.286q-9.143-8-20-3.429-10.857 5.143-10.857 16.571v128h-713.143q-8 0-13.143 5.143t-5.143 13.143v109.714q0 8 5.143 13.143t13.143 5.143h713.143v128q0 12 10.857 16.571t20-2.857l219.429-200q5.714-5.714 5.714-13.143z" />
<glyph unicode="&#xe975;" glyph-name="long-arrow-up" d="M729.714 678.286q-5.143-10.857-16.571-10.857h-128v-713.143q0-8-5.143-13.143t-13.143-5.143h-109.714q-8 0-13.143 5.143t-5.143 13.143v713.143h-128q-12 0-16.571 10.857t2.857 20l200 219.429q5.714 5.714 13.143 5.714 8 0 13.714-5.714l202.857-219.429q7.429-9.143 2.857-20z" />
<glyph unicode="&#xe976;" glyph-name="mail-forward" d="M1024 594.286q0-14.857-10.857-25.714l-292.571-292.571q-10.857-10.857-25.714-10.857t-25.714 10.857-10.857 25.714v146.286h-128q-56 0-100.286-3.429t-88-12.286-76-24.286-60.286-39.714-45.714-57.714-27.714-79.143-10-103.429q0-31.429 2.857-70.286 0-3.429 1.429-13.429t1.429-15.143q0-8.571-4.857-14.286t-13.429-5.714q-9.143 0-16 9.714-4 5.143-7.429 12.571t-7.714 17.143-6 13.714q-72.571 162.857-72.571 257.714 0 113.714 30.286 190.286 92.571 230.286 500 230.286h128v146.286q0 14.857 10.857 25.714t25.714 10.857 25.714-10.857l292.571-292.571q10.857-10.857 10.857-25.714z" />
<glyph unicode="&#xe977;" glyph-name="mail-reply" d="M1024 320q0-94.857-72.571-257.714-1.714-4-6-13.714t-7.714-17.143-7.429-12.571q-6.857-9.714-16-9.714-8.571 0-13.429 5.714t-4.857 14.286q0 5.143 1.429 15.143t1.429 13.429q2.857 38.857 2.857 70.286 0 57.714-10 103.429t-27.714 79.143-45.714 57.714-60.286 39.714-76 24.286-88 12.286-100.286 3.429h-128v-146.286q0-14.857-10.857-25.714t-25.714-10.857-25.714 10.857l-292.571 292.571q-10.857 10.857-10.857 25.714t10.857 25.714l292.571 292.571q10.857 10.857 25.714 10.857t25.714-10.857 10.857-25.714v-146.286h128q407.429 0 500-230.286 30.286-76.571 30.286-190.286z" />
<glyph unicode="&#xe978;" glyph-name="move-window" d="M910.222 49.778h-796.444v796.444h398.222v113.778h-398.222c-62.578 0-113.778-51.2-113.778-113.778v-796.444c0-62.578 51.2-113.778 113.778-113.778h796.444c62.578 0 113.778 51.2 113.778 113.778v398.222h-113.778v-398.222zM625.778 960v-113.778h204.8l-557.511-557.511 79.644-79.642 557.511 557.509v-204.8h113.778v398.222h-398.222z" />
<glyph unicode="&#xe979;" glyph-name="play" d="M900.571 430.286l-758.857-421.714q-13.143-7.429-22.571-1.714t-9.429 20.571v841.143q0 14.857 9.429 20.571t22.571-1.714l758.857-421.714q13.143-7.429 13.143-17.714t-13.143-17.714z" />
<glyph unicode="&#xe97a;" glyph-name="play-circle" d="M512 886.857q119.429 0 220.286-58.857t159.714-159.714 58.857-220.286-58.857-220.286-159.714-159.714-220.286-58.857-220.286 58.857-159.714 159.714-58.857 220.286 58.857 220.286 159.714 159.714 220.286 58.857zM731.429 416.571q18.286 10.286 18.286 31.429t-18.286 31.429l-310.857 182.857q-17.714 10.857-36.571 0.571-18.286-10.857-18.286-32v-365.714q0-21.143 18.286-32 9.143-4.571 18.286-4.571 9.714 0 18.286 5.143z" />
<glyph unicode="&#xe97b;" glyph-name="play-circle-o" d="M749.714 448q0-21.143-18.286-31.429l-310.857-182.857q-8.571-5.143-18.286-5.143-9.143 0-18.286 4.571-18.286 10.857-18.286 32v365.714q0 21.143 18.286 32 18.857 10.286 36.571-0.571l310.857-182.857q18.286-10.286 18.286-31.429zM822.857 448q0 84.571-41.714 156t-113.143 113.143-156 41.714-156-41.714-113.143-113.143-41.714-156 41.714-156 113.143-113.143 156-41.714 156 41.714 113.143 113.143 41.714 156zM950.857 448q0-119.429-58.857-220.286t-159.714-159.714-220.286-58.857-220.286 58.857-159.714 159.714-58.857 220.286 58.857 220.286 159.714 159.714 220.286 58.857 220.286-58.857 159.714-159.714 58.857-220.286z" />
<glyph unicode="&#xe97c;" glyph-name="plus" d="M914.286 539.429v-109.714q0-22.857-16-38.857t-38.857-16h-237.714v-237.714q0-22.857-16-38.857t-38.857-16h-109.714q-22.857 0-38.857 16t-16 38.857v237.714h-237.714q-22.857 0-38.857 16t-16 38.857v109.714q0 22.857 16 38.857t38.857 16h237.714v237.714q0 22.857 16 38.857t38.857 16h109.714q22.857 0 38.857-16t16-38.857v-237.714h237.714q22.857 0 38.857-16t16-38.857z" />
<glyph unicode="&#xe97d;" glyph-name="plus-circle" d="M768 411.429v73.143q0 14.857-10.857 25.714t-25.714 10.857h-146.286v146.286q0 14.857-10.857 25.714t-25.714 10.857h-73.143q-14.857 0-25.714-10.857t-10.857-25.714v-146.286h-146.286q-14.857 0-25.714-10.857t-10.857-25.714v-73.143q0-14.857 10.857-25.714t25.714-10.857h146.286v-146.286q0-14.857 10.857-25.714t25.714-10.857h73.143q14.857 0 25.714 10.857t10.857 25.714v146.286h146.286q14.857 0 25.714 10.857t10.857 25.714zM950.857 448q0-119.429-58.857-220.286t-159.714-159.714-220.286-58.857-220.286 58.857-159.714 159.714-58.857 220.286 58.857 220.286 159.714 159.714 220.286 58.857 220.286-58.857 159.714-159.714 58.857-220.286z" />
<glyph unicode="&#xe97e;" glyph-name="plus-square" d="M804.571 411.429v73.143q0 14.857-10.857 25.714t-25.714 10.857h-182.857v182.857q0 14.857-10.857 25.714t-25.714 10.857h-73.143q-14.857 0-25.714-10.857t-10.857-25.714v-182.857h-182.857q-14.857 0-25.714-10.857t-10.857-25.714v-73.143q0-14.857 10.857-25.714t25.714-10.857h182.857v-182.857q0-14.857 10.857-25.714t25.714-10.857h73.143q14.857 0 25.714 10.857t10.857 25.714v182.857h182.857q14.857 0 25.714 10.857t10.857 25.714zM950.857 722.286v-548.571q0-68-48.286-116.286t-116.286-48.286h-548.571q-68 0-116.286 48.286t-48.286 116.286v548.571q0 68 48.286 116.286t116.286 48.286h548.571q68 0 116.286-48.286t48.286-116.286z" />
<glyph unicode="&#xe97f;" glyph-name="plus-square-o" d="M768 502.857v-36.571q0-8-5.143-13.143t-13.143-5.143h-201.143v-201.143q0-8-5.143-13.143t-13.143-5.143h-36.571q-8 0-13.143 5.143t-5.143 13.143v201.143h-201.143q-8 0-13.143 5.143t-5.143 13.143v36.571q0 8 5.143 13.143t13.143 5.143h201.143v201.143q0 8 5.143 13.143t13.143 5.143h36.571q8 0 13.143-5.143t5.143-13.143v-201.143h201.143q8 0 13.143-5.143t5.143-13.143zM841.143 246.857v475.429q0 37.714-26.857 64.571t-64.571 26.857h-475.429q-37.714 0-64.571-26.857t-26.857-64.571v-475.429q0-37.714 26.857-64.571t64.571-26.857h475.429q37.714 0 64.571 26.857t26.857 64.571zM914.286 722.286v-475.429q0-68-48.286-116.286t-116.286-48.286h-475.429q-68 0-116.286 48.286t-48.286 116.286v475.429q0 68 48.286 116.286t116.286 48.286h475.429q68 0 116.286-48.286t48.286-116.286z" />
<glyph unicode="&#xe980;" glyph-name="power-off" d="M950.857 448q0-89.143-34.857-170.286t-93.714-140-140-93.714-170.286-34.857-170.286 34.857-140 93.714-93.714 140-34.857 170.286q0 104 46 196t129.429 154.286q24.571 18.286 54.571 14.286t47.714-28.571q18.286-24 14-54t-28.286-48.286q-56-42.286-86.571-103.429t-30.571-130.286q0-59.429 23.143-113.429t62.571-93.429 93.429-62.571 113.429-23.143 113.429 23.143 93.429 62.571 62.571 93.429 23.143 113.429q0 69.143-30.571 130.286t-86.571 103.429q-24 18.286-28.286 48.286t14 54q17.714 24.571 48 28.571t54.286-14.286q83.429-62.286 129.429-154.286t46-196zM585.143 886.857v-365.714q0-29.714-21.714-51.429t-51.429-21.714-51.429 21.714-21.714 51.429v365.714q0 29.714 21.714 51.429t51.429 21.714 51.429-21.714 21.714-51.429z" />
<glyph unicode="&#xe981;" glyph-name="previous-track" d="M0 960h170.667v-1024h-170.667v1024zM298.667 448l725.333-512v1024z" />
<glyph unicode="&#xe982;" glyph-name="progress-indicator" d="M0-64h1024v1024l-1024-1024zM921.6 38.4h-168.96v501.76l168.96 174.080v-675.84z" />
<glyph unicode="&#xe983;" glyph-name="refresh-button" d="M512 820.364v139.636l-186.182-186.182 186.182-186.182v139.636c153.6 0 279.273-125.673 279.273-279.273 0-46.545-13.964-93.091-32.582-130.327l69.818-69.818c32.582 60.509 55.855 125.673 55.855 200.145 0 204.8-167.564 372.364-372.364 372.364zM512 168.727c-153.6 0-279.273 125.673-279.273 279.273 0 46.545 13.964 93.091 32.582 130.327l-69.818 69.818c-32.582-60.509-55.855-125.673-55.855-200.145 0-204.8 167.564-372.364 372.364-372.364v-139.636l186.182 186.182-186.182 186.182v-139.636z" />
<glyph unicode="&#xe984;" glyph-name="refresh-button-1" d="M870.4 806.4c-89.6 96-217.6 153.6-358.4 153.6-281.6 0-512-230.4-512-512s230.4-512 512-512c236.8 0 435.2 166.4 492.8 384h-134.4c-51.2-147.2-192-256-358.4-256-211.2 0-384 172.8-384 384s172.8 384 384 384c108.8 0 198.4-44.8 268.8-115.2l-204.8-204.8h448v448l-153.6-153.6z" />
<glyph unicode="&#xe985;" glyph-name="remove" d="M851.429 204.571q0-22.857-16-38.857l-77.714-77.714q-16-16-38.857-16t-38.857 16l-168 168-168-168q-16-16-38.857-16t-38.857 16l-77.714 77.714q-16 16-16 38.857t16 38.857l168 168-168 168q-16 16-16 38.857t16 38.857l77.714 77.714q16 16 38.857 16t38.857-16l168-168 168 168q16 16 38.857 16t38.857-16l77.714-77.714q16-16 16-38.857t-16-38.857l-168-168 168-168q16-16 16-38.857z" />
<glyph unicode="&#xe986;" glyph-name="repeat" d="M950.857 813.714v-256q0-14.857-10.857-25.714t-25.714-10.857h-256q-24 0-33.714 22.857-9.714 22.286 8 39.429l78.857 78.857q-84.571 78.286-199.429 78.286-59.429 0-113.429-23.143t-93.429-62.571-62.571-93.429-23.143-113.429 23.143-113.429 62.571-93.429 93.429-62.571 113.429-23.143q68 0 128.571 29.714t102.286 84q4 5.714 13.143 6.857 8 0 14.286-5.143l78.286-78.857q5.143-4.571 5.429-11.714t-4.286-12.857q-62.286-75.429-150.857-116.857t-186.857-41.429q-89.143 0-170.286 34.857t-140 93.714-93.714 140-34.857 170.286 34.857 170.286 93.714 140 140 93.714 170.286 34.857q84 0 162.571-31.714t139.714-89.429l74.286 73.714q16.571 17.714 40 8 22.286-9.714 22.286-33.714z" />
<glyph unicode="&#xe987;" glyph-name="replay-arrow" d="M512 755.2v204.8l-256-256 256-256v204.8c168.96 0 307.2-138.24 307.2-307.2s-138.24-307.2-307.2-307.2c-168.96 0-307.2 138.24-307.2 307.2h-102.4c0-225.28 184.32-409.6 409.6-409.6s409.6 184.32 409.6 409.6-184.32 409.6-409.6 409.6z" />
<glyph unicode="&#xe988;" glyph-name="reply" d="M1024 320q0-94.857-72.571-257.714-1.714-4-6-13.714t-7.714-17.143-7.429-12.571q-6.857-9.714-16-9.714-8.571 0-13.429 5.714t-4.857 14.286q0 5.143 1.429 15.143t1.429 13.429q2.857 38.857 2.857 70.286 0 57.714-10 103.429t-27.714 79.143-45.714 57.714-60.286 39.714-76 24.286-88 12.286-100.286 3.429h-128v-146.286q0-14.857-10.857-25.714t-25.714-10.857-25.714 10.857l-292.571 292.571q-10.857 10.857-10.857 25.714t10.857 25.714l292.571 292.571q10.857 10.857 25.714 10.857t25.714-10.857 10.857-25.714v-146.286h128q407.429 0 500-230.286 30.286-76.571 30.286-190.286z" />
<glyph unicode="&#xe989;" glyph-name="reply-all-button" d="M298.667 640v128l-298.667-298.667 298.667-298.667v128l-170.667 170.667 170.667 170.667zM554.667 597.333v170.667l-298.667-298.667 298.667-298.667v174.933c213.333 0 362.667-68.267 469.333-217.6-42.667 213.333-170.667 426.667-469.333 469.333z" />
<glyph unicode="&#xe98a;" glyph-name="report-symbol" d="M718.497 957.171h-418.652l-299.845-299.845v-424.309l299.845-294.188h424.309l299.843 299.845v418.652l-305.501 299.845zM509.171 148.155c-39.602 0-73.547 33.947-73.547 73.547s33.945 73.547 73.547 73.547c39.602 0 73.547-33.947 73.547-73.547s-33.945-73.547-73.547-73.547zM565.746 391.425h-113.149v339.448h113.149v-339.448z" />
<glyph unicode="&#xe98b;" glyph-name="rewind-button" d="M497.371 96.914v702.171l-497.371-351.086 497.371-351.086zM526.629 448l497.371-351.086v702.171l-497.371-351.086z" />
<glyph unicode="&#xe98c;" glyph-name="right-arrow-forward" d="M512 960l-89.6-89.6 358.4-358.4h-780.8v-128h780.8l-358.4-358.4 89.6-89.6 512 512z" />
<glyph unicode="&#xe98d;" glyph-name="rotate-left" d="M950.857 448q0-89.143-34.857-170.286t-93.714-140-140-93.714-170.286-34.857q-98.286 0-186.857 41.429t-150.857 116.857q-4 5.714-3.714 12.857t4.857 11.714l78.286 78.857q5.714 5.143 14.286 5.143 9.143-1.143 13.143-6.857 41.714-54.286 102.286-84t128.571-29.714q59.429 0 113.429 23.143t93.429 62.571 62.571 93.429 23.143 113.429-23.143 113.429-62.571 93.429-93.429 62.571-113.429 23.143q-56 0-107.429-20.286t-91.429-58l78.286-78.857q17.714-17.143 8-39.429-9.714-22.857-33.714-22.857h-256q-14.857 0-25.714 10.857t-10.857 25.714v256q0 24 22.857 33.714 22.286 9.714 39.429-8l74.286-73.714q61.143 57.714 139.714 89.429t162.571 31.714q89.143 0 170.286-34.857t140-93.714 93.714-140 34.857-170.286z" />
<glyph unicode="&#xe98e;" glyph-name="rotate-right" d="M950.857 813.714v-256q0-14.857-10.857-25.714t-25.714-10.857h-256q-24 0-33.714 22.857-9.714 22.286 8 39.429l78.857 78.857q-84.571 78.286-199.429 78.286-59.429 0-113.429-23.143t-93.429-62.571-62.571-93.429-23.143-113.429 23.143-113.429 62.571-93.429 93.429-62.571 113.429-23.143q68 0 128.571 29.714t102.286 84q4 5.714 13.143 6.857 8 0 14.286-5.143l78.286-78.857q5.143-4.571 5.429-11.714t-4.286-12.857q-62.286-75.429-150.857-116.857t-186.857-41.429q-89.143 0-170.286 34.857t-140 93.714-93.714 140-34.857 170.286 34.857 170.286 93.714 140 140 93.714 170.286 34.857q84 0 162.571-31.714t139.714-89.429l74.286 73.714q16.571 17.714 40 8 22.286-9.714 22.286-33.714z" />
<glyph unicode="&#xe98f;" glyph-name="rotate-to-left-button" d="M243.81 553.651l-75.852 75.852c-48.762-65.016-81.27-135.45-86.688-211.302h108.36c5.418 48.762 27.090 92.106 54.18 135.45zM189.63 309.841h-108.36c10.836-75.852 37.926-146.286 86.688-211.302l75.852 75.852c-27.090 43.344-48.762 86.688-54.18 135.45zM243.81 22.688c65.016-48.76 135.45-75.85 211.302-86.688v108.36c-48.762 5.418-92.106 27.090-135.45 54.18l-75.852-75.852zM563.471 792.042v167.958l-243.81-243.81 243.81-243.81v211.302c151.704-27.090 270.899-157.122 270.899-319.661s-119.196-292.571-270.899-319.661v-108.36c211.302 27.090 379.259 211.302 379.259 428.021s-167.958 400.931-379.259 428.021z" />
<glyph unicode="&#xe990;" glyph-name="rotate-to-right-button" d="M704.339 716.19l-243.81 243.81v-167.958c-211.302-27.090-379.259-205.884-379.259-428.021s167.958-400.931 379.259-428.021v108.36c-151.704 27.090-270.899 157.122-270.899 319.661s119.196 292.571 270.899 319.661v-211.302l243.81 243.81zM942.73 418.201c-10.838 75.852-37.928 146.286-86.688 211.302l-75.852-75.852c27.090-43.344 48.762-86.688 54.18-135.45h108.36zM568.889 44.36v-108.36c75.852 10.838 146.286 37.928 211.302 86.688l-75.852 75.852c-43.344-27.090-86.688-48.762-135.45-54.18zM780.19 174.392l75.852-75.852c48.76 65.018 81.27 135.45 86.688 211.302h-108.36c-5.418-48.762-27.090-92.106-54.18-135.45z" />
<glyph unicode="&#xe991;" glyph-name="round-add-button" d="M563.2 652.8h-102.4v-153.6h-153.6v-102.4h153.6v-153.6h102.4v153.6h153.6v102.4h-153.6v153.6zM512 960c-281.6 0-512-230.4-512-512s230.4-512 512-512 512 230.4 512 512-230.4 512-512 512zM512 38.4c-225.28 0-409.6 184.32-409.6 409.6s184.32 409.6 409.6 409.6 409.6-184.32 409.6-409.6-184.32-409.6-409.6-409.6z" />
<glyph unicode="&#xe992;" glyph-name="round-data-usage-symbol" d="M563.2 957.44v-153.6c174.080-25.6 307.2-174.080 307.2-353.28 0-46.080-10.24-87.040-25.6-128l133.12-76.8c30.72 61.44 46.080 133.12 46.080 209.92 0 261.12-199.68 476.16-460.8 501.76zM512 92.16c-199.68 0-358.4 158.72-358.4 358.4 0 179.2 133.12 327.68 307.2 353.28v153.6c-261.12-20.48-460.8-240.64-460.8-506.88 0-281.6 230.4-512 512-512 168.96 0 317.44 81.92 414.72 209.92l-133.12 76.8c-66.56-81.92-168.96-133.12-281.6-133.12z" />
<glyph unicode="&#xe993;" glyph-name="round-delete-button" d="M512 960c-281.6 0-512-230.4-512-512s230.4-512 512-512 512 230.4 512 512-230.4 512-512 512zM512 38.4c-225.28 0-409.6 184.32-409.6 409.6s184.32 409.6 409.6 409.6 409.6-184.32 409.6-409.6-184.32-409.6-409.6-409.6zM307.2 396.8h409.6v102.4h-409.6v-102.4z" />
<glyph unicode="&#xe994;" glyph-name="rounded-adjust-button-with-plus-and-minus" d="M512 243.2h256v76.8h-256v-76.8zM512 960c-281.6 0-512-230.4-512-512s230.4-512 512-512 512 230.4 512 512-230.4 512-512 512zM204.8 652.8h102.4v102.4h76.8v-102.4h102.4v-76.8h-102.4v-102.4h-76.8v102.4h-102.4v76.8zM512 38.4c-112.64 0-215.040 46.080-291.84 117.76l583.68 583.68c71.68-76.8 117.76-179.2 117.76-291.84 0-225.28-184.32-409.6-409.6-409.6z" />
<glyph unicode="&#xe995;" glyph-name="rounded-pause-button" d="M358.4 243.2h102.4v409.6h-102.4v-409.6zM512 960c-281.6 0-512-230.4-512-512s230.4-512 512-512 512 230.4 512 512-230.4 512-512 512zM512 38.4c-225.28 0-409.6 184.32-409.6 409.6s184.32 409.6 409.6 409.6 409.6-184.32 409.6-409.6-184.32-409.6-409.6-409.6zM563.2 243.2h102.4v409.6h-102.4v-409.6z" />
<glyph unicode="&#xe996;" glyph-name="rounded-remove-button" d="M512 960c-281.6 0-512-230.4-512-512s230.4-512 512-512 512 230.4 512 512-230.4 512-512 512zM768 396.8h-512v102.4h512v-102.4z" />
<glyph unicode="&#xe997;" glyph-name="round-error-symbol" d="M512 960c-281.6 0-512-230.4-512-512s230.4-512 512-512 512 230.4 512 512-230.4 512-512 512zM563.2 192h-102.4v102.4h102.4v-102.4zM563.2 396.8h-102.4v307.2h102.4v-307.2z" />
<glyph unicode="&#xe998;" glyph-name="round-info-button" d="M460.8 192h102.4v307.2h-102.4v-307.2zM512 960c-281.6 0-512-230.4-512-512s230.4-512 512-512 512 230.4 512 512-230.4 512-512 512zM512 38.4c-225.28 0-409.6 184.32-409.6 409.6s184.32 409.6 409.6 409.6 409.6-184.32 409.6-409.6-184.32-409.6-409.6-409.6zM460.8 601.6h102.4v102.4h-102.4v-102.4z" />
<glyph unicode="&#xe999;" glyph-name="round-pause-button" d="M512 960c-281.6 0-512-230.4-512-512s230.4-512 512-512 512 230.4 512 512-230.4 512-512 512zM460.8 243.2h-102.4v409.6h102.4v-409.6zM665.6 243.2h-102.4v409.6h102.4v-409.6z" />
<glyph unicode="&#xe99a;" glyph-name="round-remove-button" d="M256 499.2v-102.4h512v102.4h-512zM512 960c-281.6 0-512-230.4-512-512s230.4-512 512-512 512 230.4 512 512-230.4 512-512 512zM512 38.4c-225.28 0-409.6 184.32-409.6 409.6s184.32 409.6 409.6 409.6 409.6-184.32 409.6-409.6-184.32-409.6-409.6-409.6z" />
<glyph unicode="&#xe99b;" glyph-name="round-rgb-button" d="M358.4 448c-56.32 0-102.4-46.080-102.4-102.4s46.080-102.4 102.4-102.4 102.4 46.080 102.4 102.4-46.080 102.4-102.4 102.4zM614.4 601.6c0 56.32-46.080 102.4-102.4 102.4s-102.4-46.080-102.4-102.4 46.080-102.4 102.4-102.4 102.4 46.080 102.4 102.4zM512 960c-281.6 0-512-230.4-512-512s230.4-512 512-512 512 230.4 512 512-230.4 512-512 512zM512 38.4c-225.28 0-409.6 184.32-409.6 409.6s184.32 409.6 409.6 409.6 409.6-184.32 409.6-409.6-184.32-409.6-409.6-409.6zM665.6 448c-56.32 0-102.4-46.080-102.4-102.4s46.080-102.4 102.4-102.4 102.4 46.080 102.4 102.4-46.080 102.4-102.4 102.4z" />
<glyph unicode="&#xe99c;" glyph-name="share" d="M1024 594.286q0-14.857-10.857-25.714l-292.571-292.571q-10.857-10.857-25.714-10.857t-25.714 10.857-10.857 25.714v146.286h-128q-56 0-100.286-3.429t-88-12.286-76-24.286-60.286-39.714-45.714-57.714-27.714-79.143-10-103.429q0-31.429 2.857-70.286 0-3.429 1.429-13.429t1.429-15.143q0-8.571-4.857-14.286t-13.429-5.714q-9.143 0-16 9.714-4 5.143-7.429 12.571t-7.714 17.143-6 13.714q-72.571 162.857-72.571 257.714 0 113.714 30.286 190.286 92.571 230.286 500 230.286h128v146.286q0 14.857 10.857 25.714t25.714 10.857 25.714-10.857l292.571-292.571q10.857-10.857 10.857-25.714z" />
<glyph unicode="&#xe99d;" glyph-name="share-square" d="M647.429 330.857l201.143 201.143q10.857 10.857 10.857 25.714t-10.857 25.714l-201.143 201.143q-17.143 17.714-39.429 8-22.857-9.714-22.857-33.714v-91.429q-68 0-123.429-11.143t-92.857-29.143-65.143-45.143-43.714-54.571-25.429-62.286-12.286-63.714-2.857-63.143q0-103.429 95.429-230.857 5.714-6.857 14.286-6.857 4 0 7.429 1.714 12.571 5.143 10.857 18.857-25.143 202.286 35.429 270.286 26.286 29.714 74.286 43.143t128 13.429v-91.429q0-24 22.857-33.714 6.857-2.857 13.714-2.857 14.857 0 25.714 10.857zM950.857 722.286v-548.571q0-68-48.286-116.286t-116.286-48.286h-548.571q-68 0-116.286 48.286t-48.286 116.286v548.571q0 68 48.286 116.286t116.286 48.286h548.571q68 0 116.286-48.286t48.286-116.286z" />
<glyph unicode="&#xe99e;" glyph-name="share-square-o" d="M841.143 394.857v-148q0-68-48.286-116.286t-116.286-48.286h-475.429q-68 0-116.286 48.286t-48.286 116.286v475.429q0 68 48.286 116.286t116.286 48.286h145.714q7.429 0 12.857-5.429t5.429-12.857q0-15.429-14.857-18.286-44-14.857-76-34.286-5.714-2.286-9.143-2.286h-64q-37.714 0-64.571-26.857t-26.857-64.571v-475.429q0-37.714 26.857-64.571t64.571-26.857h475.429q37.714 0 64.571 26.857t26.857 64.571v122.286q0 10.857 10.286 16.571 16 7.429 30.857 21.143 9.143 9.143 20 4.571 12-5.143 12-16.571zM976.571 678.286l-219.429-219.429q-10.286-10.857-25.714-10.857-6.857 0-14.286 2.857-22.286 9.714-22.286 33.714v109.714h-91.429q-184.571 0-250.286-74.857-68-78.286-42.286-270.286 1.714-13.143-11.429-19.429-4.571-1.143-6.857-1.143-9.143 0-14.857 7.429-5.714 8-12 17.714t-22.571 39.143-28.286 56.857-22 65.143-10 69.714q0 28 2 52t8 51.429 16 50.286 26.857 46.571 39.143 42.286 54 35.143 71.143 27.714 91.143 17.429 112.286 6.286h91.429v109.714q0 24 22.286 33.714 7.429 2.857 14.286 2.857 14.857 0 25.714-10.857l219.429-219.429q10.857-10.857 10.857-25.714t-10.857-25.714z" />
<glyph unicode="&#xe99f;" glyph-name="show-less-fold-button" d="M217.6 25.6l89.6-89.6 204.8 204.8 204.8-204.8 89.6 89.6-294.4 294.4-294.4-294.4zM806.4 870.4l-89.6 89.6-204.8-204.8-204.8 204.8-89.6-89.6 294.4-294.4 294.4 294.4z" />
<glyph unicode="&#xe9a0;" glyph-name="show-more-button" d="M512 800.711l182.044-182.044 79.644 79.644-261.689 261.689-261.689-261.689 79.644-79.644 182.044 182.044zM512 95.289l-182.044 182.044-79.644-79.644 261.689-261.689 261.689 261.689-79.644 79.644-182.044-182.044z" />
<glyph unicode="&#xe9a1;" glyph-name="shuffle-mode-arrows" d="M422.4 627.2l-332.8 332.8-89.6-89.6 332.8-332.8 89.6 89.6zM672 960l128-128-800-806.4 89.6-89.6 806.4 800 128-128v352h-352zM691.2 358.4l-89.6-89.6 198.4-198.4-128-128h352v352l-128-128-204.8 192z" />
<glyph unicode="&#xe9a2;" glyph-name="si-glyph-arrow-backward" d="M78.728 569.193l319.789 279.793c24.757 24.696 53.67 28.853 78.426 4.096v-188.657c5.783 0.060 10.842 0.060 13.794 0.060 302.14 0 526.336-214.618 526.336-506.579 0-101.677-46.622-64.632-66.078-29.154-91.678 167.454-252.808 281.72-462.667 281.72-2.47 0-6.686-0.060-11.445-0.060v-184.621c-24.757-24.696-56.681-21.745-78.426-4.096l-319.789 257.988c-24.636 24.696-24.636 64.753 0.060 89.51v0z" />
<glyph unicode="&#xe9a3;" glyph-name="si-glyph-arrow-change" d="M152.937 447.94c49.875 0 83.064 33.19 83.064 83.064l-0.241 26.202c0 0-12.348 74.27 86.739 74.27l401.227-2.771v-105.954c19.456-19.396 51.019-19.396 70.475 0l154.985 154.925c19.396 19.516 19.396 51.080 0 70.475l-154.985 164.141c-19.456 19.396-51.019 19.396-70.475 0v-111.134c-9.698 2.831-388.698 4.457-388.698 4.457-223.533 0-272.444-146.312-272.444-205.222v-62.103c0-49.875 40.478-90.353 90.353-90.353v0zM873.412 445.47c-49.875 0-90.353-35.177-90.353-85.052l0.12-57.645c-2.711-21.504-38.852-35.539-91.859-35.539h-393.879l-0.12 93.907c-19.396 19.396-50.959 19.396-70.475 0l-154.925-154.925c-19.396-19.516-19.396-51.080 0-70.475l154.925-154.925c19.516-19.516 51.080-19.516 70.475 0l0.12 111.496h393.879c223.533 0 272.444 147.095 272.444 206.065v62.103c0 49.815-40.478 84.992-90.353 84.992v0z" />
<glyph unicode="&#xe9a4;" glyph-name="si-glyph-arrow-circle-rycycle" d="M1020.687 343.311l-86.679 25.66c0.422 8.011 1.024 15.902 1.024 23.853 0 212.631-145.709 397.131-346.473 438.573l-15.721-81.98c163.177-33.792 281.6-183.657 281.6-356.593v-0.361l-78.426 23.191c-16.023-9.276-21.805-30.419-12.83-47.044l71.198-132.939c9.035-16.625 29.274-22.588 45.417-13.432l128.12 74.029c16.023 9.336 21.745 30.298 12.77 47.044v0zM146.854 410.293c0 141.734 79.872 268.288 198.776 327.68l36.864-99.87c18.131-8.312 39.394 0.060 47.465 18.914l64.512 149.986c7.951 18.854-0.12 40.9-18.312 49.272l-144.565 66.861c-18.191 8.493-39.334-0.060-47.465-18.854l32.587-88.245c-149.384-71.861-250.458-229.195-250.458-405.805 0-49.634 8.132-99.147 24.335-147.155l76.017 27.528c-13.131 39.213-19.757 79.45-19.757 119.688v0zM524.83 50.025c-63.006 0-124.386 15.842-177.995 48.851l67.885 71.56c-0.181 20.661-16.324 36.021-36.322 35.84h-158.178c-19.998-0.12-35.9-16.926-35.72-37.647l1.084-164.322c0.181-20.661 16.324-37.225 36.382-36.984l67.223 70.837c69.692-47.405 151.371-71.68 235.64-71.68 121.254 0 237.688 53.911 319.548 147.817l-59.753 56.079c-66.62-76.499-161.31-120.35-259.795-120.35v0z" />
<glyph unicode="&#xe9a5;" glyph-name="si-glyph-arrow-down" d="M130.108 583.77c13.553 0 27.106-3.735 39.153-11.806l375.206-250.338 363.64 252.808c32.587 21.624 76.499 12.83 98.123-19.757 21.685-32.467 12.951-76.559-19.576-98.184l-402.854-278.889c-23.733-15.902-54.694-15.962-78.547-0.12l-414.419 276.42c-32.648 21.685-41.442 65.777-19.817 98.304 13.734 20.54 36.201 31.563 59.091 31.563v0z" />
<glyph unicode="&#xe9a6;" glyph-name="si-glyph-arrow-forward" d="M938.707 569.193l-315.633 279.793c-24.335 24.696-52.947 28.853-77.282 4.096v-188.657c-5.783 0.060-10.722 0.060-13.673 0.060-298.165 0-527.059-214.618-527.059-506.579 0-101.677 46.14-64.632 65.235-29.154 90.413 167.454 257.024 281.72 464.113 281.72 2.47 0 6.626-0.060 11.324-0.060v-184.621c24.335-24.696 55.959-21.745 77.282-4.096l315.633 257.988c24.395 24.696 24.395 64.753 0.060 89.51v0z" />
<glyph unicode="&#xe9a7;" glyph-name="si-glyph-arrow-four-way" d="M1014.603 463.24l-124.205 156.070c-12.951 12.951-33.973 12.951-46.923 0v-112.941h-241.784v244.676h111.736c12.77 12.951 12.77 33.912 0 46.984l-147.757 120.531c-12.77 12.951-33.672 12.951-46.441 0l-146.492-120.531c-12.89-13.071-12.89-34.033 0-46.984h109.749v-244.676h-242.447v111.977c-13.011 12.951-33.912 12.951-46.923 0 0 0-132.156-144.806-132.156-174.562 0-25.781 132.156-161.431 132.156-161.431 13.011-13.011 33.912-13.011 46.923 0v106.376h242.447v-243.772h-110.712c-12.529-12.649-12.529-33.129 0-45.779 0 0 140.469-132.036 170.225-132.036 25.901 0 171.43 132.036 171.43 132.036 12.529 12.649 12.529 33.129 0 45.779h-111.736v243.772h241.784v-109.146c12.951-12.951 33.973-12.951 46.923 0l124.205 136.734c12.951 12.951 12.951 33.973 0 46.923v0z" />
<glyph unicode="&#xe9a8;" glyph-name="si-glyph-arrow-fullscreen" d="M975.571 924.883h-232.93c-22.889 0-41.442-18.673-41.442-41.562l95.654-96.015-115.471-115.471c-11.565-11.565-17.348-26.684-17.348-41.864s5.783-30.298 17.348-41.864c23.070-23.13 60.597-23.13 83.787 0l115.29 115.351 95.112-95.473c22.889 0 41.382 18.673 41.382 41.562v233.773c0 22.889-18.492 41.562-41.382 41.562v0zM975.33 288.678l-97.521-97.099-117.579 117.579c-23.191 23.191-60.657 23.191-83.848 0-23.13-23.13-23.13-60.597 0-83.727l117.519-117.459-93.967-93.606c0-22.889 18.613-41.382 41.562-41.382h233.773c22.95 0 41.562 18.492 41.562 41.382v232.87c0.12 23.010-18.552 41.442-41.502 41.442v0zM286.6 787.787l95.413 95.112c0 22.889-18.733 41.382-41.623 41.382h-233.713c-22.95 0-41.562-18.492-41.562-41.382v-232.87c0-22.95 18.673-41.442 41.562-41.442l96.075 95.593 118.603-118.543c11.565-11.625 26.684-17.408 41.803-17.408 15.24 0 30.298 5.783 41.924 17.408 23.070 23.070 23.070 60.597 0 83.667l-118.483 118.483zM358.46 348.913l-156.009-156.009-96.015 96.437c-22.829 0-41.442-18.673-41.442-41.562v-233.773c0-22.95 18.613-41.562 41.442-41.562h232.93c22.829 0 41.382 18.673 41.382 41.562l-94.63 95.051 156.13 156.13c23.191 23.191 23.191 60.597 0 83.787-23.070 23.070-60.597 23.070-83.787-0.060v0z" />
<glyph unicode="&#xe9a9;" glyph-name="si-glyph-arrow-fullscreen-2" d="M902.807 509.5c33.672 0 60.958 27.226 60.958 60.777v298.888c0 33.611-27.287 60.777-60.958 60.777h-299.791c-33.672 0-60.958-27.166-60.958-60.777l95.172-94.871-154.805-154.805-154.805 154.805 95.172 94.871c0 33.611-27.287 60.777-60.958 60.777h-299.791c-33.672 0-60.958-27.166-60.958-60.777v-298.888c0-33.551 27.287-60.777 60.958-60.777l95.774 95.473 155.046-155.046-156.371-156.431-94.569 94.268c-33.551 0-60.777-27.106-60.777-60.597v-297.924c0-33.431 27.226-60.597 60.777-60.597h298.888c33.611 0 60.777 27.166 60.777 60.597l-95.292 94.991 156.13 156.13 156.13-156.13-95.292-94.991c0-33.431 27.166-60.597 60.777-60.597h298.888c33.551 0 60.777 27.166 60.777 60.597v297.924c0 33.491-27.226 60.597-60.777 60.597l-94.569-94.268-156.371 156.431 155.046 155.046 95.774-95.473z" />
<glyph unicode="&#xe9aa;" glyph-name="si-glyph-arrow-left" d="M661.263 859.889c0-13.553-3.735-27.106-11.806-39.153l-250.338-375.206 252.808-363.64c21.624-32.587 12.83-76.499-19.757-98.123-32.467-21.745-76.559-12.951-98.184 19.576l-278.889 402.854c-15.902 23.733-16.023 54.694-0.12 78.547l276.42 414.419c21.685 32.648 65.777 41.442 98.304 19.817 20.54-13.734 31.563-36.201 31.563-59.091v0z" />
<glyph unicode="&#xe9ab;" glyph-name="si-glyph-arrow-left-right" d="M301.176 387.765h485.858v-172.506l231.906 230.099-231.906 241.724-3.976-178.846h-481.882l-6.867 178.846-232.267-243.23 232.267-232.87 6.867 176.783z" />
<glyph unicode="&#xe9ac;" glyph-name="si-glyph-arrow-move" d="M508.544 321.536c68.784 0 130.796 56.964 130.796 127.232s-62.012 127.232-130.796 127.232c-68.784 0-124.544-56.964-124.544-127.232s55.76-127.232 124.544-127.232zM333.466 705.004c-12.672 14.656-15.104 43.54-2.176 58.516l151.846 187.776c12.992 15.040 33.728 15.232 46.656 0.32l162.35-188.864c12.928-14.656 12.928-42.836 0-57.748h-358.676zM692.535 189.363c12.8-10.752 12.672-33.267 0-44.019l-160.439-198.656c-12.992-10.688-33.6-10.688-46.4 0l-151.376 198.656c-12.8 10.752-12.8 33.139 0 43.891l358.215 0.128zM827.52 622.848l187.776-147.584c14.976-13.44 15.232-35.264 0.384-48.64l-188.672-154.304c-14.592-13.248-41.883-13.504-56.731 0v350.912c0 0 42.331 13.056 57.243-0.384zM256.823 269.504c-14.656-13.376-44.023-13.248-58.679 0l-187.648 157.376c-14.72 13.504-14.72 35.136 0.256 48.64l186.112 150.848c14.656 13.248 45.239 13.376 59.959 0v-356.864z" />
<glyph unicode="&#xe9ad;" glyph-name="si-glyph-arrow-reload" d="M1011.712 393.306l-94.088 102.28c-12.951 12.77-33.852 12.77-46.743 0l-94.208-102.28c-12.951-12.89-12.951-33.672 0-46.502h77.944c-29.274-109.929-115.531-198.536-228.232-228.292-130.59-34.455-270.216 16.806-347.377 127.639l-65.717-45.237c76.258-109.568 201.367-172.514 331.174-172.514 34.033 0 68.488 4.337 102.28 13.312 147.637 38.912 259.192 158.6 289.912 305.092h74.993c12.951 12.83 12.951 33.611 0.060 46.502v0zM329.788 446.735c12.951 12.83 12.951 33.672 0 46.502h-87.763c29.997 108.484 115.531 195.644 227.147 225.16 130.711 34.515 270.216-16.866 347.317-127.759l65.777 45.297c-96.256 138.24-270.216 202.33-433.634 159.322-146.492-38.731-257.385-156.913-289.129-302.020h-87.462c-12.951-12.89-12.951-33.732 0-46.502l98.665-98.605c12.89-12.77 33.852-12.77 46.743 0l112.339 98.605z" />
<glyph unicode="&#xe9ae;" glyph-name="si-glyph-arrow-resize-1" d="M447.68 265.472l-119.168 118.016-193.664-190.72-130.88 129.024v-377.792h383.168l-132.864 131.008 193.408 190.464zM637.504 959.488l134.208-133.568-195.392-194.112 120.32-120.32 195.648 194.432 125.888-127.744v381.312h-380.672z" />
<glyph unicode="&#xe9af;" glyph-name="si-glyph-arrow-resize-2" d="M324.8 515.2l117.952 119.168-190.72 193.664 129.088 130.816h-377.792v-383.104l130.944 132.864 190.528-193.408zM1024.223 325.376l-138.975-134.208-194.112 195.392-120.384-120.384 194.496-195.584-127.744-133.401h386.719v388.185z" />
<glyph unicode="&#xe9b0;" glyph-name="si-glyph-arrow-resize-3" d="M1023.68 841.472l-119.168 118.016-193.664-190.72-130.88 129.024v-377.792h383.168l-132.864 131.008 193.408 190.464zM61.504 383.488l134.208-133.568-195.392-194.112 120.32-120.32 195.648 194.432 125.888-127.744v381.312h-380.672z" />
<glyph unicode="&#xe9b1;" glyph-name="si-glyph-arrow-resize-4" d="M903.68-64.192l120.32 120.384-194.432 195.648 131.584 132.16h-385.152v-387.008l133.568 134.208 194.112-195.392zM448 897.984l-133.568-134.144-194.112 195.328-120.32-120.384 194.432-195.584-127.744-125.888h381.312v380.672z" />
<glyph unicode="&#xe9b2;" glyph-name="si-glyph-arrow-resize-5" d="M902.807 929.882h-299.791c-33.672 0-60.958-27.166-60.958-60.777l95.172-94.871-480.678-480.738-94.569 94.268c-33.551 0-60.777-27.106-60.777-60.597v-297.924c0-33.431 27.226-60.597 60.777-60.597h298.888c33.611 0 60.777 27.166 60.777 60.597l-95.292 94.991 480.678 480.678 95.774-95.473c33.672 0 60.958 27.226 60.958 60.777v298.888c0 33.611-27.287 60.777-60.958 60.777v0z" />
<glyph unicode="&#xe9b3;" glyph-name="si-glyph-arrow-resize-6" d="M62.103 929.882h299.791c33.672 0 60.958-27.166 60.958-60.777l-95.172-94.871 480.678-480.738 94.569 94.268c33.551 0 60.777-27.106 60.777-60.597v-297.924c0-33.431-27.226-60.597-60.777-60.597h-298.888c-33.611 0-60.777 27.166-60.777 60.597l95.292 94.991-480.678 480.678-95.774-95.473c-33.672 0-60.958 27.226-60.958 60.777v298.888c0.060 33.611 27.347 60.777 60.958 60.777v0z" />
<glyph unicode="&#xe9b4;" glyph-name="si-glyph-arrow-right" d="M366.050 859.889c0-13.553 3.735-27.106 11.806-39.153l250.338-375.206-252.808-363.64c-21.624-32.587-12.83-76.499 19.757-98.123 32.467-21.745 76.559-12.951 98.184 19.576l278.889 402.854c15.902 23.733 16.023 54.694 0.12 78.547l-276.42 414.419c-21.685 32.648-65.777 41.442-98.304 19.817-20.54-13.734-31.563-36.201-31.563-59.091v0z" />
<glyph unicode="&#xe9b5;" glyph-name="si-glyph-arrow-shuffle" d="M730.112 571h116.495v-51.441c12.951-12.951 33.912-12.951 46.863 0l118.362 81.438c12.89 12.951 12.89 33.912 0 46.863l-118.362 90.052c-12.951 13.011-33.912 13.011-46.863 0v-51.14h-118.362c-11.746 0.482-116.616 1.928-195.042-73.608-51.622-49.634-77.824-100.111-77.824-186.91 0-52.585-13.613-92.401-40.297-118.302-41.984-40.659-106.677-44.695-109.508-44.634h-240.279v-114.327c0 0 241.242-0.12 244.676-0.12 27.166 0 117.76 5.421 187.512 71.921 51.863 49.333 78.125 118.543 78.125 205.463 0 52.585 13.613 73.848 40.478 100.111 42.285 41.321 112.038 44.393 114.025 44.634v0zM1014.362 225.912l-122.097 91.558c-12.951 12.951-33.912 12.951-46.863 0v-55.055h-129.747c0 0-39.334-0.482-77.101 16.986l-54.754-99.569c58.067-26.805 114.808-28.913 130.289-28.913 1.867 0 3.313 0.060 3.795 0.060h127.518v-54.272c12.951-12.951 33.912-12.951 46.863 0l122.097 82.462c12.89 12.89 12.89 33.852 0 46.743v0zM394.842 548.653l63.368 97.461c-71.56 40.117-147.275 38.129-152.998 37.948h-244.977v-113.845l247.627 0.060c0.723-0.241 46.863 0.904 86.98-21.624v0z" />
<glyph unicode="&#xe9b6;" glyph-name="si-glyph-arrow-thick-down" d="M501.579-27.016l328.102 357.798c12.649 14.095 12.529 36.984-0.12 51.14l-231.364 0.301v483.328c0 33.31-26.323 60.235-58.79 60.235h-117.519c-32.527 0-58.79-26.925-58.79-60.235v-483.087l-237.929 0.301c-12.529-13.914-12.408-36.864 0.241-51.080l330.391-358.641c12.83-13.975 33.19-14.095 45.779-0.060v0z" />
<glyph unicode="&#xe9b7;" glyph-name="si-glyph-arrow-thick-left" d="M8.011 425.894l357.798-322.018c14.095-12.71 36.984-12.589 51.14 0.12l0.301 224.557h483.328c33.31 0 60.235 26.443 60.235 59.151v118.423c0 32.708-26.925 59.151-60.235 59.151h-483.087l0.301 229.496c-13.914 12.589-36.864 12.529-51.080-0.181l-358.641-322.68c-14.035-12.83-14.216-33.31-0.060-46.020v0z" />
<glyph unicode="&#xe9b8;" glyph-name="si-glyph-arrow-thick-right" d="M1013.037 499.441l-357.798 327.68c-14.095 12.89-36.984 12.83-51.14-0.12l-0.301-228.472h-483.328c-33.31 0-60.235-26.925-60.235-60.235v-120.471c0-33.31 26.925-60.235 60.235-60.235h483.027l-0.361-233.532c13.975-12.83 36.924-12.77 51.14 0.181l358.641 328.403c14.035 13.071 14.216 33.973 0.12 46.803v0z" />
<glyph unicode="&#xe9b9;" glyph-name="si-glyph-arrow-thick-thin-down" d="M140.71 437.941c11.987 0 24.335-2.711 35.9-8.493l365.628-182.754 365.568 182.754c39.695 19.878 87.883 3.735 107.701-35.96 19.878-39.635 3.735-87.883-35.9-107.701l-401.528-200.764c-22.588-11.324-49.272-11.324-71.861 0l-401.528 200.764c-39.635 19.817-55.778 68.066-35.9 107.701 14.155 28.19 42.466 44.454 71.921 44.454v0zM140.71 698.94c6.024 0 12.107-1.325 17.89-4.216l383.639-191.789 383.518 191.789c19.817 9.879 43.912 1.867 53.911-17.95 9.879-19.817 1.867-43.912-18.010-53.911l-401.528-200.764c-11.324-5.662-24.576-5.662-35.9 0l-401.528 200.764c-19.878 9.939-27.889 34.033-18.010 53.911 7.048 14.035 21.263 22.167 36.021 22.167v0z" />
<glyph unicode="&#xe9ba;" glyph-name="si-glyph-arrow-thick-thin-up" d="M943.646 427.942c-12.107 0-24.335 2.711-35.9 8.493l-365.508 182.754-365.688-182.754c-39.755-19.878-87.883-3.735-107.701 35.96-19.878 39.635-3.735 87.883 35.9 107.701l401.528 200.764c22.588 11.324 49.272 11.324 71.861 0l401.528-200.764c39.635-19.817 55.778-68.066 35.9-107.701-14.035-28.19-42.466-44.454-71.921-44.454v0zM943.646 166.942c-6.024 0-12.107 1.325-17.89 4.216l-383.518 191.789-383.639-191.789c-19.817-9.879-43.972-1.867-53.911 17.95s-1.867 43.912 18.010 53.911l401.528 200.764c11.324 5.662 24.576 5.662 35.9 0l401.528-200.764c19.878-9.939 27.889-34.033 18.010-53.911-7.108-14.035-21.263-22.167-36.021-22.167v0z" />
<glyph unicode="&#xe9bb;" glyph-name="si-glyph-arrow-thick-up" d="M521.035 890.248l-330.391-357.798c-12.71-14.095-12.589-36.984 0.12-51.14l232.99-0.301v-483.328c0-33.31 26.443-60.235 59.151-60.235h118.362c32.708 0 59.151 26.925 59.151 60.235v483.087l229.557-0.301c12.589 13.914 12.469 36.864-0.241 51.080l-322.68 358.641c-12.83 13.975-33.31 14.095-46.020 0.060v0z" />
<glyph unicode="&#xe9bc;" glyph-name="si-glyph-arrow-thin-down" d="M543.985-32.075l-403.095 379.784c-27.648 27.648-17.83 69.873-5.662 81.86 24.275 24.215 60.115 20.6 84.45-3.674l267.324-234.677 0.060 681.562c0.060 30.84 25.66 55.778 57.344 55.838 31.624 0.060 57.284-24.998 57.224-55.838l0.783-675.358 257.265 232.147c24.335 24.215 63.789 24.215 88.004 0 24.395-24.094 18.312-57.224-6.084-81.438l-397.613-380.205z" />
<glyph unicode="&#xe9bd;" glyph-name="si-glyph-arrow-thin-left" d="M62.765 447.398l379.784 403.155c27.648 27.648 69.873 17.83 81.86 5.662 24.215-24.275 20.6-60.115-3.674-84.45l-234.677-267.324 681.562-0.12c30.84-0.060 55.778-25.66 55.838-57.344 0.060-31.624-24.998-57.284-55.838-57.224l-675.358-0.783 232.147-257.265c24.215-24.335 24.215-63.789 0-88.004-24.094-24.395-57.224-18.312-81.438 6.084l-380.205 397.613z" />
<glyph unicode="&#xe9be;" glyph-name="si-glyph-arrow-thin-left-bottom" d="M67.704-29.184l-1.024 525.312c0 39.032 36.804 61.982 53.911 61.862 34.334-0.060 57.103-27.949 57.163-62.283l0.602-322.078 746.556 734.871c21.805 21.745 57.585 21.323 79.932-1.084 22.468-22.347 22.95-58.187 1.084-79.932l-731.618-741.617 321.235-0.482c34.334-0.12 62.223-28.009 62.223-62.223 0.181-34.334-27.528-53.429-61.862-53.308l-528.203 0.964z" />
<glyph unicode="&#xe9bf;" glyph-name="si-glyph-arrow-thin-left-top" d="M595.426 929.521c34.515 0.12 64.753-24.275 64.632-58.669 0-34.214-30.539-56.742-64.994-56.862l-322.5-0.482 734.449-741.617c21.926-21.745 21.444-57.585-1.084-79.932-22.468-22.347-58.368-22.829-80.354-1.084l-749.327 734.871-0.663-335.45c-0.060-34.334-22.95-62.223-57.344-62.283-17.167-0.12-54.091 22.829-54.091 61.862l1.024 538.684 530.251 0.964z" />
<glyph unicode="&#xe9c0;" glyph-name="si-glyph-arrow-thin-right" d="M1023.518 449.205l-379.784-403.155c-27.648-27.648-69.873-17.83-81.86-5.662-24.215 24.275-20.6 60.115 3.674 84.45l234.616 267.324-681.502 0.12c-30.84 0.060-55.778 25.66-55.838 57.344-0.060 31.624 24.998 57.284 55.838 57.224l675.358 0.783-232.207 257.265c-24.215 24.335-24.215 63.789 0 88.004 24.094 24.395 57.224 18.312 81.438-6.084l380.265-397.613z" />
<glyph unicode="&#xe9c1;" glyph-name="si-glyph-arrow-thin-right-bottom" d="M490.797-30.148c-34.515-0.12-62.283 18.914-62.163 53.308 0 34.214 28.009 62.103 62.524 62.223l322.44 0.482-734.449 741.617c-21.926 21.745-21.504 57.585 1.024 79.932s58.428 22.829 80.354 1.084l749.387-734.871 0.602 322.078c0.12 34.334 22.95 62.223 57.404 62.283 17.167 0.12 54.091-22.829 54.091-61.862l-1.024-525.312-530.191-0.964z" />
<glyph unicode="&#xe9c2;" glyph-name="si-glyph-arrow-thin-right-top" d="M1018.458 928.617l1.024-537.961c0-39.032-36.804-61.982-53.911-61.862-34.334 0.060-57.103 27.949-57.163 62.283l-0.602 334.728-746.556-734.871c-21.865-21.745-57.585-21.323-79.992 1.084s-22.95 58.187-1.024 79.932l731.618 741.617-321.235 0.482c-34.334 0.12-63.97 22.648-63.97 56.862-0.181 34.334 29.214 58.79 63.669 58.669l528.143-0.964z" />
<glyph unicode="&#xe9c3;" glyph-name="si-glyph-arrow-thin-up" d="M542.238 928.678l403.155-379.784c27.648-27.648 17.89-69.873 5.662-81.86-24.215-24.215-60.115-20.6-84.45 3.674l-267.324 234.616-0.12-681.502c0-30.84-25.66-55.778-57.284-55.898-31.624 0-57.284 25.058-57.284 55.898l-0.723 675.298-257.265-232.147c-24.335-24.215-63.789-24.215-88.004 0-24.335 24.094-18.251 57.163 6.144 81.438l397.493 380.265z" />
<glyph unicode="&#xe9c4;" glyph-name="si-glyph-arrow-three-way-1" d="M692.224 704.704c14.528 14.464 14.4 37.952 0 52.288l-152.512 192.192c-14.528 14.464-37.952 14.464-52.352 0l-152.512-192.192c-14.464-14.4-14.464-37.888 0-52.288h115.904v-766.656h123.904v766.656h117.568zM929.024 639.488l-191.104-22.4c-16 0-29.056-13.248-29.056-29.568l51.712-52.544-119.040-120.96v-478.080h125.184v425.088l82.56 83.584 57.792-58.88c16-0.064 28.992 13.248 29.12 29.568l21.888 194.688c-0.064 16.32-13.056 29.568-29.056 29.504v0zM320.128 394.112c0 16.32-13.248 29.504-29.568 29.568l-194.56 22.336c-16.384 0-29.632-13.184-29.632-29.504l22.4-194.56c0-16.384 13.248-29.632 29.568-29.632l56.576 56.512 84.096-103.808v-204.608l121.6-3.328v257.6l-116.352 143.616 55.872 55.808z" />
<glyph unicode="&#xe9c5;" glyph-name="si-glyph-arrow-three-way-2" d="M726.558 632.44l-186.97 293.888-176.369-294.008h118.664v-108.785c0-44.574 14.095-69.933 58.669-69.933 44.393 0 59.934 25.359 59.934 69.933v108.845l126.072 0.060zM665.058 30.328l348.28 0.361-153.72 306.417-63.548-100.111-91.859 58.308c-37.647 23.913-66.56 25.54-90.473-12.047-23.853-37.466-10.722-64.151 26.925-88.064l91.859-58.308-67.464-106.556zM417.973 35.388l-348.28 0.361 153.72 306.417 63.548-100.111 91.859 58.308c37.647 23.913 66.62 25.54 90.473-12.047 23.793-37.466 10.722-64.151-26.925-88.064l-91.859-58.308 67.464-106.556z" />
<glyph unicode="&#xe9c6;" glyph-name="si-glyph-arrow-triangle-recycle" d="M1017.934 157.967l-122.001 200.885c-11.395 18.793-34.979 24.154-52.554 11.987-17.688-11.987-22.677-37.045-11.282-55.778l84.188-141.975h-180.451l0.057 86.679c-7.257 7.77-18.652 8.252-25.455 1.024l-122.908-110.050c-6.746-7.288-6.35-19.396 0.907-27.166l121.888-88.847c7.313-7.71 18.708-8.132 25.455-0.843v61.801h250.239c13.89 0 26.702 8.072 33.335 21.082 6.633 12.951 6.123 28.792-1.417 41.201v0zM357.982 170.436h-185.666l101.195 165.768 53.177-39.514c10.431 1.807 17.461 11.806 15.704 22.287l-8.164 170.225c-1.701 10.421-11.565 17.167-21.997 15.3l-151.481-50.116c-10.318-2.108-17.291-12.107-15.534-22.408l64.516-48.128-138.555-228.954c-7.824-12.77-8.334-29.094-1.474-42.406 6.86-13.493 19.956-21.745 34.242-21.745h257.439c21.543 0 39.004 18.673 39.004 41.623s-20.806 38.069-42.406 38.069v0zM603.685 531.305l148.023-50.718c9.524-1.928 18.708 5.24 20.636 16.023l9.468 163.599c1.814 10.782-4.309 20.962-13.719 22.829l-54.198-39.153-123.419 202.993c-13.946 23.010-49.832 23.070-63.779-0.060l-114.688-188.717c-11.395-18.793-6.35-43.731 11.282-55.838s41.158-6.746 52.554 12.047l82.77 136.192 92.465-152.094-61.001-44.092c-1.984-10.842 4.082-21.082 13.606-23.010v0z" />
<glyph unicode="&#xe9c7;" glyph-name="si-glyph-arrow-two-left-right" d="M222.148 465.107c19.456-18.974 51.019-18.974 70.475 0v103.846h580.728c49.875 0 90.353 39.755 90.353 88.666s-40.478 88.666-90.353 88.666h-580.728v108.363c-19.456 19.095-51.019 19.095-70.475 0l-149.384-163.117c-19.456-19.034-19.456-49.875 0-69.030l149.384-157.395zM949.188 277.534l-154.985 152.877c-19.456 19.275-51.019 19.275-70.536 0v-104.267h-568.079c-49.875 0-90.353-39.996-90.353-89.208s40.478-89.208 90.353-89.208h568.079v-104.328c19.516-19.155 51.080-19.155 70.536 0l154.985 152.877c19.396 19.155 19.396 62.103 0 81.257v0z" />
<glyph unicode="&#xe9c8;" glyph-name="si-glyph-arrow-two-up" d="M540.491 648.282l301.297-225.521v237.327l-301.297 237.508-299.309-243.471v-236.002l0.723-0.663 298.586 230.822zM540.491 179.471l301.297-237.99v237.207l-301.297 238.893-299.309-244.796v-236.002l0.723-0.602 298.586 243.29z" />
<glyph unicode="&#xe9c9;" glyph-name="si-glyph-arrow-two-way" d="M861.365 347.588c-12.89 13.011-34.033 13.011-46.923 0v-53.489h-183.176c-20.781 4.397-122.579 38.731-122.579 189.38 0 147.938 94.148 174.321 118.784 178.296h185.705v-54.392c12.951-12.951 33.973-12.951 46.923 0l124.085 85.956c12.951 13.011 12.951 33.973 0 46.923l-124.085 89.208c-12.951 13.011-33.973 13.011-46.923 0v-51.019l-196.427-0.361c-72.162-7.891-199.62-70.837-223.533-242.266h-302.863c-33.31 0-60.235-22.709-60.235-55.959 0-33.31 26.925-60.235 60.235-60.235h303.827c26.323-165.647 152.395-229.737 222.75-240.279l197.451-0.602v-51.983c12.89-12.951 34.033-12.951 46.923 0l122.82 84.631c12.951 13.011 12.951 33.973 0 46.923l-122.76 89.269z" />
<glyph unicode="&#xe9ca;" glyph-name="si-glyph-arrow-two-way-left-right" d="M1009.724 749.839l-154.202 156.853c-17.709 18.071-55.296 18.071-72.945 0v-109.267c-87.883-3.735-186.79-54.995-240.459-129.144-53.79 74.089-159.684 125.41-247.507 129.144v109.267c-17.769 18.071-55.296 18.071-73.005 0l-147.095-156.853c-17.769-18.010-17.769-47.285 0-65.355l147.095-156.792c17.709-18.071 55.236-18.071 73.005 0v106.135c84.39-5.301 190.103-75.595 190.103-161.973v-441.705h112.941v441.705c0 86.438 100.472 156.732 184.922 161.973v-106.135c17.649-18.071 55.236-18.071 72.945 0l154.202 156.792c17.769 18.071 17.769 47.345 0 65.355v0z" />
<glyph unicode="&#xe9cb;" glyph-name="si-glyph-arrow-two-way-right" d="M849.664 530.176c-20.672-20.16-54.208-20.16-74.88 0v110.336h-617.088c-52.928 0-96 42.24-96 94.208s43.072 94.208 96 94.208h617.088v115.136c20.672 20.288 54.208 20.288 74.88 0l158.72-173.312c20.672-20.224 20.672-52.992 0-73.344l-158.72-167.232zM1008.512 266.88l-164.672 162.432c-20.672 20.48-54.208 20.48-74.944 0v-110.784h-603.584c-52.992 0-96-42.496-96-94.784s43.008-94.784 96-94.784h603.584v-110.848c20.736-20.352 54.272-20.352 74.944 0l164.672 162.432c20.608 20.352 20.608 65.984 0 86.336v0z" />
<glyph unicode="&#xe9cc;" glyph-name="si-glyph-arrow-two-way-right-bottom" d="M1012.375 755.561l-166.129 166.189c-15.661 15.661-41.141 15.541-56.862-0.301l-0.602-118.242h-524.77c-44.454 0-80.474-36.081-80.474-80.414v-519.349l-115.17-0.723c-15.661-15.601-15.42-41.020 0.361-56.802l167.876-167.816c15.782-15.902 41.261-16.083 56.802-0.361l166.129 166.129c15.661 15.661 15.541 45.538-0.301 61.32l-100.352-0.723v367.556c0 44.454 16.384 59.211 60.898 59.211h368.158l-0.602-100.653c15.661-15.601 41.020-15.48 56.742 0.301l167.996 167.876c15.782 15.782 15.902 41.261 0.301 56.802v0z" />
<glyph unicode="&#xe9cd;" glyph-name="si-glyph-arrow-up" d="M952.44 333.794c-13.553 0-27.166 3.735-39.153 11.866l-375.266 250.338-363.64-252.808c-32.587-21.624-76.499-12.83-98.123 19.757-21.745 32.467-12.951 76.499 19.637 98.123l402.854 278.95c23.672 15.902 54.694 15.902 78.487 0.12l414.479-276.48c32.587-21.624 41.442-65.777 19.757-98.244-13.734-20.6-36.201-31.624-59.031-31.624v0z" />
<glyph unicode="&#xe9ce;" glyph-name="si-glyph-arrow-up-down" d="M483.147 691.29v-484.232h-178.236l230.039-240.399 241.845 240.399h-174.441v484.232h174.441l-243.29 232.267-232.87-232.267h182.513z" />
<glyph unicode="&#xe9cf;" glyph-name="si-glyph-button-arrow-down" d="M480.919-33.882c-264.373 0-479.413 215.401-479.413 480.256 0 264.734 215.040 480.136 479.413 480.136s479.413-215.401 479.413-480.136c0-264.855-215.040-480.256-479.413-480.256v0zM480.497 815.194c-202.571 0-367.556-164.563-367.556-366.592 0-202.21 164.984-366.833 367.556-366.833 202.692 0 367.556 164.623 367.556 366.833-0.060 202.029-164.924 366.592-367.556 366.592v0zM304.008 444.928l179.742-235.159 175.646 235.219h-120.651v196.608c0 20.721-19.516 47.586-57.525 47.586-37.948 0-58.79-29.094-58.79-49.754v-194.5h-118.423z" />
<glyph unicode="&#xe9d0;" glyph-name="si-glyph-button-arrow-left" d="M60.235 445.53c0 264.373 215.763 479.413 480.979 479.413 265.096 0 480.858-215.040 480.858-479.413s-215.763-479.413-480.858-479.413c-265.216 0-480.979 215.040-480.979 479.413v0zM906.963 445.53c0 200.764-163.539 364.122-364.484 364.122-201.005 0-364.544-163.358-364.544-364.122s163.599-364.122 364.544-364.122c201.005 0 364.484 163.358 364.484 364.122v0zM540.612 627.501l-235.159-180.826 235.219-177.754v120.651h189.139c20.781 0 47.646 19.516 47.646 57.525 0 37.948-29.094 58.729-49.754 58.729h-187.031v121.675h-0.060z" />
<glyph unicode="&#xe9d1;" glyph-name="si-glyph-button-arrow-right" d="M1022.133 445.53c0-264.373-215.763-479.413-481.039-479.413-265.035 0-480.798 215.040-480.798 479.413s215.763 479.413 480.798 479.413c265.276 0 481.039-215.040 481.039-479.413v0zM178.839 445.53c0-199.078 163.358-361.171 364.122-361.171s364.243 162.093 364.243 361.171c0 199.078-163.418 361.171-364.243 361.171s-364.122-162.093-364.122-361.171v0zM545.551 269.161l235.159 180.826-235.219 177.754v-120.651h-196.548c-20.841 0-47.646-19.516-47.646-57.525 0-37.948 29.094-58.729 49.754-58.729h194.5v-121.675z" />
<glyph unicode="&#xe9d2;" glyph-name="si-glyph-button-arrow-up" d="M541.154 926.449c264.373 0 479.413-214.558 479.413-478.328 0-263.65-215.040-478.208-479.413-478.208s-479.413 214.558-479.413 478.208c0 263.77 215.1 478.328 479.413 478.328v0zM540.25 81.589c201.608 0 365.869 164.382 365.869 366.411 0 201.969-164.262 366.411-365.869 366.411-201.728 0-365.809-164.442-365.809-366.411 0-202.029 164.081-366.411 365.809-366.411v0zM721.318 453.662l-180.826 235.159-177.754-235.219h120.651v-196.608c0-20.721 19.516-47.586 57.525-47.586 37.948 0 58.729 29.094 58.729 49.754v194.5h121.675z" />
<glyph unicode="&#xe9d3;" glyph-name="si-glyph-circle" d="M1024 417.882c0-266.136-215.746-481.882-481.882-481.882s-481.882 215.746-481.882 481.882c0 266.136 215.746 481.882 481.882 481.882s481.882-215.746 481.882-481.882z" />
<glyph unicode="&#xe9d4;" glyph-name="si-glyph-circle-backward" d="M543.985 928.617c-264.674 0-479.172-214.859-479.172-480.015s214.558-480.015 479.172-480.015c264.614 0 479.172 214.859 479.172 480.015s-214.558 480.015-479.172 480.015v0zM752.941 306.688c-47.767 87.281-85.293 128.060-194.68 128.060-1.265 0-11.746-0.060-14.216-0.060v-96.256c-12.83-12.89-29.636-11.384-40.84-2.108l-194.5 145.89c-12.77 12.89-12.77 33.852 0 46.682l194.5 145.89c12.951 12.951 28.009 15.059 40.84 2.168v-98.364c3.012 0 13.854 0.060 15.42 0.060 157.576 0 227.991-104.508 227.991-256.843-0.060-53.007-24.456-33.611-34.515-15.119v0z" />
</font>
</defs>
</svg>
